<svg xmlns="http://www.w3.org/2000/svg" width="2000" height="2000" viewBox="0 0 2000 2000" version="1.1">
	<path d="M 473.650 548.750 C 472.339 551.362, 469.540 558.424, 467.429 564.443 C 462.162 579.461, 459.234 583.521, 450.502 587.915 C 445.407 590.479, 441.848 591.542, 437.419 591.824 C 430.285 592.279, 429.828 592.078, 409.500 579.599 C 401.800 574.871, 394.825 571.009, 394 571.016 C 391.161 571.039, 357 605.806, 357 608.672 C 357 610.337, 365.444 624.922, 375.269 640.226 L 378.945 645.953 372.052 660.226 C 368.260 668.077, 363.799 675.881, 362.137 677.569 C 359.315 680.436, 356.741 681.618, 338.500 688.415 C 334.650 689.850, 330.915 691.397, 330.200 691.852 C 329.189 692.496, 328.914 698.069, 328.962 716.928 C 328.997 730.607, 329.448 741.969, 329.997 742.995 C 330.950 744.774, 342.644 749.764, 351.197 752.039 C 359.939 754.366, 365.500 760.894, 371.094 775.399 C 372.981 780.293, 373.972 784.391, 373.653 785.986 C 373.367 787.416, 371.230 791.942, 368.905 796.043 C 360.188 811.417, 355 821.342, 355 822.646 C 355 823.891, 380.282 849.216, 387.806 855.507 L 391.112 858.272 399.556 854.087 C 413.286 847.284, 431.055 839, 431.918 839 C 432.359 839, 436.496 840.735, 441.110 842.855 C 445.725 844.975, 452.425 847.678, 456 848.862 L 462.500 851.015 469.362 871.026 L 476.224 891.036 499.326 890.768 L 522.428 890.500 525.203 883 C 526.728 878.875, 529.888 870.008, 532.223 863.296 L 536.469 851.093 543.985 848.442 C 548.118 846.985, 554.826 844.264, 558.891 842.396 C 562.956 840.528, 566.890 839, 567.633 839 C 568.377 839, 576.863 842.931, 586.491 847.736 L 603.997 856.472 616.068 844.486 C 622.708 837.894, 629.967 830.343, 632.200 827.706 L 636.259 822.913 633.232 816.206 C 631.568 812.518, 627.680 804.060, 624.592 797.411 L 618.979 785.322 623.100 776.527 C 625.367 771.690, 628.224 764.760, 629.450 761.127 L 631.678 754.522 650.089 747.760 C 660.215 744.041, 669.077 740.219, 669.781 739.265 C 670.738 737.971, 671.036 732.017, 670.960 715.713 C 670.860 694.305, 670.817 693.874, 668.679 692.923 C 667.481 692.389, 658.683 689.151, 649.130 685.726 L 631.760 679.500 628.483 670.500 C 626.682 665.550, 623.895 658.575, 622.291 655 C 618.654 646.893, 618.897 645.911, 628.588 629.500 C 632.485 622.900, 637.152 614.875, 638.958 611.666 L 642.243 605.833 638.371 601.805 C 621.731 584.494, 606.926 571, 604.575 571 C 603.820 571, 600.760 572.688, 597.775 574.750 C 594.790 576.813, 588.996 580.808, 584.898 583.629 C 580.801 586.450, 575.120 589.586, 572.274 590.596 C 566.367 592.694, 563.095 592.277, 547.620 587.452 C 539.940 585.057, 538.534 584.253, 536.407 581.039 C 533.353 576.423, 528.232 564.149, 524.606 552.750 L 521.822 544 498.928 544 L 476.034 544 473.650 548.750 M 475.820 548.765 C 474.944 550.269, 472.344 557.125, 470.043 564 C 463.696 582.961, 459.462 588.265, 447.234 592.581 C 434.787 596.974, 429.080 595.495, 410.592 583.088 C 406.691 580.471, 401.389 577.102, 398.808 575.603 C 394.417 573.053, 393.963 572.978, 391.734 574.439 C 390.424 575.297, 382.524 583.217, 374.179 592.039 L 359.006 608.079 360.360 611.320 C 361.105 613.103, 364.183 618.148, 367.200 622.531 C 374.662 633.372, 379.698 642.668, 380.817 647.666 C 381.638 651.331, 381.526 651.891, 379.890 652.318 C 378.673 652.637, 375.800 657.444, 371.576 666.230 C 368.025 673.614, 364.531 680.144, 363.810 680.742 C 362.270 682.020, 340.735 690.542, 336.448 691.569 C 330.912 692.896, 331 692.476, 331 717.551 C 331 735.911, 331.290 741.147, 332.365 742.222 C 333.116 742.973, 338.907 745.261, 345.234 747.307 C 358.315 751.537, 363.722 754.963, 367.505 761.418 C 370.473 766.482, 377 781.769, 377 783.655 C 377 785.111, 370.724 797.416, 362.665 811.764 C 359.494 817.409, 357.184 822.488, 357.531 823.050 C 357.878 823.612, 361.838 827.576, 366.331 831.858 C 370.824 836.141, 378.100 843.088, 382.500 847.296 C 386.900 851.505, 391.262 854.959, 392.193 854.974 C 393.779 854.998, 398.227 852.787, 404 849.104 C 405.375 848.227, 412.292 844.749, 419.370 841.375 L 432.241 835.241 441.636 839.691 C 446.803 842.139, 454.056 845.162, 457.755 846.410 L 464.479 848.678 471.369 868.339 L 478.259 888 499.379 887.994 L 520.500 887.988 527.346 868.244 L 534.192 848.500 541.346 846.209 C 545.281 844.949, 552.706 841.917, 557.846 839.472 L 567.192 835.026 585.346 844.121 L 603.500 853.216 616.709 839.482 C 623.974 831.928, 630.620 824.972, 631.477 824.025 C 632.906 822.447, 632.316 820.749, 624.384 803.624 L 615.733 784.944 620.749 774.222 C 623.507 768.325, 626.563 760.951, 627.538 757.836 L 629.311 752.172 648.406 745.187 L 667.500 738.202 667.500 716.851 L 667.500 695.500 648.221 688.509 L 628.941 681.518 626.860 674.530 C 625.716 670.687, 622.879 663.257, 620.557 658.020 C 615.499 646.611, 615.345 647.459, 625.556 630.500 C 629.529 623.900, 634.248 615.522, 636.040 611.881 L 639.300 605.263 625.900 591.783 C 618.530 584.369, 610.790 577.039, 608.700 575.495 L 604.899 572.686 600.200 576.035 C 584.724 587.062, 578.965 590.624, 573.275 592.689 C 565.071 595.667, 563.719 595.613, 553.248 591.888 C 541.004 587.533, 539.824 587.322, 540.599 589.631 C 541.453 592.170, 536.715 586.644, 533.629 581.500 C 530.837 576.846, 521.002 551.022, 520.996 548.329 C 520.992 546.620, 519.559 546.485, 499.203 546.265 L 477.413 546.031 475.820 548.765 M 982.615 596.088 C 972.779 596.518, 964.376 597.236, 963.942 597.685 C 963.211 598.441, 961.780 605.270, 955.499 638 C 954.179 644.875, 952.567 655.225, 951.915 661 C 951.264 666.775, 950.229 671.996, 949.615 672.603 C 949.002 673.209, 945.125 674.262, 941 674.942 C 936.875 675.623, 929.993 677.054, 925.707 678.122 C 921.421 679.190, 917.546 679.837, 917.096 679.559 C 916.647 679.282, 913.661 674.655, 910.462 669.277 C 904.149 658.665, 876.681 616.572, 874.251 613.787 C 872.852 612.183, 872.559 612.180, 869.629 613.740 C 867.908 614.656, 859.075 618.608, 850 622.522 C 833.885 629.471, 833.503 629.705, 833.639 632.569 C 834.108 642.434, 835.573 651.740, 839.448 669.483 C 847.798 707.712, 847.832 707.898, 846.628 708.845 C 844.526 710.498, 819.187 726, 818.587 726 C 817.912 726, 791.407 705.439, 773.771 691.234 L 762.043 681.786 759.126 684.240 C 750.644 691.378, 725 715.371, 725 716.170 C 725 718.030, 737.171 738.165, 755.121 766 C 758.136 770.675, 760.918 775.021, 761.303 775.657 C 761.705 776.321, 759.491 779.822, 756.111 783.868 C 752.870 787.747, 748.049 793.875, 745.397 797.486 C 742.021 802.084, 740.116 803.872, 739.038 803.453 C 736.909 802.625, 679.147 783.035, 675.731 781.982 C 673.435 781.274, 672.733 781.502, 671.621 783.314 C 669.619 786.578, 655.685 812.582, 652.114 819.719 L 649.002 825.938 658.251 833.269 C 670.670 843.113, 684.460 853.843, 696.114 862.732 L 705.728 870.065 703.387 876.515 C 702.099 880.063, 699.860 887.136, 698.412 892.233 C 696.964 897.330, 695.491 901.814, 695.139 902.198 C 694.788 902.582, 678.804 903.353, 659.620 903.912 C 640.435 904.470, 624.585 905.081, 624.397 905.270 C 624.209 905.458, 622.473 916.589, 620.540 930.005 C 617.807 948.975, 617.301 954.573, 618.263 955.184 C 619.618 956.046, 669.998 972.814, 679.250 975.483 L 685 977.142 685.200 990.571 C 685.310 997.957, 685.423 1005.680, 685.450 1007.733 L 685.500 1011.466 675 1015.814 C 669.225 1018.206, 655.050 1023.994, 643.500 1028.677 C 631.950 1033.361, 621.899 1037.437, 621.165 1037.736 C 619.571 1038.385, 619.571 1038.385, 625.637 1066 C 628.114 1077.275, 630.499 1086.868, 630.937 1087.317 C 631.375 1087.766, 647.363 1087.383, 666.466 1086.466 C 685.568 1085.548, 701.526 1085.181, 701.928 1085.649 C 702.330 1086.117, 704.604 1091.450, 706.982 1097.500 C 709.359 1103.550, 712.191 1110.276, 713.273 1112.447 L 715.242 1116.395 712.371 1118.823 C 708.268 1122.292, 675.692 1151.622, 668.174 1158.615 L 661.848 1164.500 667.022 1173 C 678.868 1192.462, 688.443 1207, 689.416 1207 C 689.986 1207, 704.527 1201.150, 721.727 1194 C 738.927 1186.850, 753.563 1181.018, 754.250 1181.041 C 754.938 1181.063, 756.850 1182.852, 758.500 1185.016 C 760.150 1187.180, 764.929 1192.906, 769.120 1197.740 L 776.739 1206.528 760.395 1237.014 C 751.405 1253.781, 744.039 1267.900, 744.025 1268.390 C 744.011 1268.879, 744.621 1269.779, 745.380 1270.390 C 746.139 1271, 753.373 1276.900, 761.456 1283.500 C 769.539 1290.100, 777.826 1296.699, 779.872 1298.164 L 783.592 1300.827 808.416 1277.664 C 822.070 1264.924, 833.823 1254.076, 834.536 1253.558 C 835.423 1252.914, 837.672 1253.635, 841.666 1255.845 C 844.875 1257.620, 851.663 1261.183, 856.750 1263.762 C 863.888 1267.381, 866 1268.920, 866 1270.504 C 866 1271.632, 863.979 1286.493, 861.510 1303.528 C 859.040 1320.563, 857.015 1335.480, 857.010 1336.678 C 856.998 1339.186, 858.423 1339.800, 885.964 1349.154 L 903.427 1355.085 905.051 1352.933 C 905.944 1351.749, 913.797 1337.509, 922.503 1321.289 L 938.333 1291.798 942.416 1292.456 C 956.452 1294.718, 965.925 1295.989, 968.781 1295.994 C 970.586 1295.997, 972.225 1296.563, 972.424 1297.250 C 972.623 1297.938, 974.425 1306.375, 976.430 1316 C 982.760 1346.394, 984.136 1352.286, 986.935 1361 L 989.666 1369.500 1012.474 1369.276 C 1025.018 1369.153, 1035.422 1368.911, 1035.593 1368.740 C 1036.179 1368.154, 1038.088 1356.506, 1042.496 1326.620 C 1044.920 1310.187, 1047.038 1296.066, 1047.202 1295.242 C 1047.415 1294.172, 1051.510 1292.909, 1061.500 1290.833 C 1082.782 1286.411, 1080.330 1285.743, 1087.823 1298 C 1108.945 1332.548, 1118.278 1347, 1119.467 1347 C 1120.673 1347, 1163.873 1329.460, 1164.698 1328.636 C 1165.116 1328.218, 1159.266 1299.365, 1154.127 1276.500 C 1150.630 1260.939, 1150.442 1259.366, 1151.903 1257.919 C 1152.782 1257.049, 1158.225 1253.325, 1164 1249.643 C 1169.775 1245.961, 1175.451 1242.271, 1176.614 1241.443 C 1178.627 1240.009, 1179.750 1240.758, 1200.114 1257.124 C 1226.732 1278.515, 1233.864 1284, 1235.061 1284 C 1235.975 1284, 1268.158 1254.951, 1270.826 1251.719 C 1272.295 1249.939, 1268.985 1244.126, 1246.356 1208.744 C 1240.110 1198.979, 1235 1190.567, 1235 1190.052 C 1235 1189.537, 1238.713 1184.434, 1243.250 1178.711 C 1247.787 1172.988, 1252.421 1167.037, 1253.546 1165.486 L 1255.592 1162.666 1288.959 1173.836 C 1307.311 1179.980, 1322.438 1184.893, 1322.573 1184.753 C 1323.558 1183.742, 1345.971 1141.286, 1345.934 1140.500 C 1345.883 1139.387, 1343.612 1137.542, 1313.526 1114.160 C 1301.961 1105.174, 1292.115 1097.454, 1291.644 1097.005 C 1290.951 1096.343, 1297.544 1074.066, 1301.017 1065.338 C 1301.848 1063.248, 1302.428 1063.174, 1318.688 1063.091 C 1327.935 1063.044, 1343.691 1062.713, 1353.703 1062.356 L 1371.906 1061.705 1372.430 1059.103 C 1373.209 1055.229, 1376.723 1032.659, 1377.972 1023.500 C 1378.573 1019.100, 1379.275 1014.520, 1379.533 1013.323 C 1380.011 1011.102, 1373.890 1008.890, 1320 991.812 C 1316.425 990.679, 1313.217 989.471, 1312.872 989.126 C 1312.527 988.782, 1312.005 981.144, 1311.713 972.154 L 1311.182 955.807 1315.341 954.006 C 1317.628 953.016, 1331.875 947.158, 1347 940.989 C 1362.125 934.820, 1375.007 929.262, 1375.628 928.637 C 1376.466 927.792, 1375.376 921.354, 1371.391 903.596 C 1368.440 890.449, 1365.807 879.473, 1365.539 879.205 C 1365.048 878.715, 1318.391 880.524, 1303.500 881.610 L 1295.500 882.194 1290 868.423 C 1286.975 860.849, 1284.075 853.604, 1283.555 852.322 C 1282.717 850.253, 1283.279 849.402, 1288.555 844.746 C 1304.319 830.835, 1334 802.780, 1334 801.790 C 1334 800.778, 1309.171 760.224, 1308.174 759.608 C 1307.779 759.363, 1299.140 762.669, 1288.978 766.953 C 1241.413 787.007, 1242.981 786.437, 1241.033 784.366 C 1240.068 783.339, 1234.719 777.426, 1229.146 771.224 L 1219.013 759.947 1221.881 754.724 C 1223.458 751.851, 1230.263 739.375, 1237.002 727 C 1243.742 714.625, 1250.098 703.012, 1251.128 701.193 C 1252.158 699.374, 1253 697.716, 1253 697.509 C 1253 697.177, 1219.453 670.542, 1214.862 667.228 C 1213.315 666.112, 1212.082 666.906, 1204.769 673.728 C 1181.470 695.462, 1161.738 713.533, 1161.012 713.801 C 1160.563 713.966, 1153.981 710.709, 1146.384 706.562 C 1138.787 702.416, 1132.199 698.900, 1131.745 698.748 C 1131.291 698.597, 1132.750 685.204, 1134.986 668.987 C 1137.222 652.769, 1139.330 635.377, 1139.671 630.338 L 1140.290 621.175 1129.895 618.027 C 1124.178 616.295, 1116.125 613.807, 1112 612.498 C 1096.595 607.611, 1097.257 607.633, 1094.547 611.925 C 1093.234 614.005, 1088.695 621.902, 1084.461 629.472 C 1080.227 637.043, 1076.006 643.994, 1075.082 644.918 C 1074.158 645.842, 1070.096 653.031, 1066.056 660.892 C 1059.135 674.358, 1058.559 675.158, 1056.105 674.733 C 1054.672 674.485, 1048.100 673.503, 1041.500 672.551 C 1034.900 671.598, 1028.567 670.646, 1027.427 670.435 C 1025.644 670.105, 1024.985 668.330, 1022.727 657.775 C 1019.548 642.921, 1008.200 599.242, 1006.877 596.771 C 1006.287 595.668, 1004.905 595.058, 1003.215 595.153 C 1001.722 595.237, 992.452 595.658, 982.615 596.088 M 984.666 600.001 C 972.008 600.464, 966.607 601.018, 966.055 601.912 C 965.169 603.345, 959.881 635.534, 956.551 659.758 C 955.322 668.700, 954.107 676.226, 953.851 676.482 C 953.490 676.843, 929.235 682.145, 916.500 684.646 C 914.823 684.976, 911.433 680.023, 895.525 654.004 C 885.089 636.934, 875.572 621.742, 874.376 620.242 L 872.202 617.516 865.351 620.774 C 861.583 622.565, 853.775 625.767, 848 627.888 L 837.500 631.745 837.789 636.122 C 837.947 638.530, 838.928 644.550, 839.967 649.500 C 843.728 667.406, 852.020 706.549, 852.494 708.633 C 852.905 710.441, 851.497 711.647, 843.240 716.556 C 837.883 719.741, 830.184 724.533, 826.130 727.204 L 818.760 732.062 811.130 726.352 C 801.226 718.939, 772.846 696.756, 766.784 691.687 L 762.068 687.744 746.034 702.468 C 736.255 711.449, 730.273 717.642, 730.698 718.346 C 731.383 719.479, 764.216 771.852, 766.350 775.217 C 767.197 776.551, 767 777.487, 765.470 779.414 C 764.386 780.777, 758.846 787.992, 753.158 795.447 C 747.471 802.901, 742.487 809, 742.084 809 C 741.681 809, 726.609 804.050, 708.590 798 C 690.572 791.950, 675.531 787.011, 675.165 787.025 C 674.799 787.038, 673.682 788.726, 672.682 790.775 C 671.682 792.824, 667.264 801.131, 662.864 809.235 C 658.464 817.340, 655.122 824.389, 655.438 824.900 C 655.869 825.598, 700.642 860.745, 709.793 867.570 C 711.011 868.478, 710.692 870.211, 707.674 879.070 C 705.720 884.806, 702.952 893.406, 701.522 898.179 C 699.190 905.964, 698.643 906.912, 696.211 907.381 C 694.720 907.669, 678.979 908.208, 661.230 908.579 C 643.482 908.951, 628.745 909.604, 628.481 910.031 C 628.217 910.458, 626.885 918.613, 625.521 928.154 C 624.157 937.694, 622.790 946.942, 622.484 948.705 L 621.926 951.909 654.713 962.591 C 672.746 968.466, 687.792 973.549, 688.150 973.886 C 688.507 974.224, 689.182 983.463, 689.650 994.418 L 690.500 1014.336 686 1016.335 C 683.525 1017.435, 668.957 1023.415, 653.627 1029.624 C 638.297 1035.832, 625.591 1041.076, 625.391 1041.276 C 624.913 1041.754, 633.601 1081.935, 634.344 1082.677 C 634.658 1082.992, 646.297 1082.710, 660.208 1082.050 C 674.119 1081.391, 689.922 1080.773, 695.327 1080.676 L 705.154 1080.500 710.456 1093.500 C 713.372 1100.650, 716.748 1108.670, 717.958 1111.323 C 719.168 1113.975, 719.935 1116.726, 719.663 1117.435 C 719.391 1118.144, 707.656 1129.155, 693.584 1141.904 C 679.513 1154.653, 668 1165.273, 668 1165.505 C 668 1166.031, 684.275 1192.038, 688.111 1197.640 L 690.945 1201.781 723.619 1188.168 L 756.293 1174.556 757.897 1177.016 C 758.778 1178.370, 764.563 1185.186, 770.750 1192.165 C 776.938 1199.143, 782 1205.269, 782 1205.779 C 782 1206.606, 756.713 1254.546, 751.919 1262.807 C 750.864 1264.626, 750.023 1266.651, 750.050 1267.307 C 750.098 1268.449, 781.802 1294.500, 783.144 1294.500 C 783.501 1294.500, 789.353 1289.284, 796.147 1282.909 C 827.820 1253.190, 834.554 1247.012, 835.285 1247.006 C 835.716 1247.003, 839.541 1248.967, 843.785 1251.371 C 848.028 1253.776, 856.055 1258.026, 861.622 1260.816 C 870.545 1265.289, 871.699 1266.163, 871.363 1268.195 C 869.102 1281.877, 862.687 1328.507, 862.606 1331.849 L 862.500 1336.198 882.225 1343.014 L 901.949 1349.830 917.919 1319.665 C 926.702 1303.074, 934.294 1288.834, 934.791 1288.019 C 935.580 1286.725, 937.440 1286.820, 949.597 1288.776 C 957.244 1290.007, 966.286 1291.297, 969.692 1291.643 L 975.884 1292.273 977.847 1300.886 C 978.927 1305.624, 981.888 1319.625, 984.427 1332 C 986.966 1344.375, 989.597 1357.163, 990.273 1360.417 C 990.958 1363.717, 992.124 1366.541, 992.910 1366.803 C 993.878 1367.126, 994.122 1366.761, 993.691 1365.636 C 993.278 1364.561, 993.587 1364, 994.590 1364 C 995.431 1364, 995.819 1364.485, 995.452 1365.077 C 994.614 1366.434, 1028.324 1365.432, 1030.960 1364.022 C 1033 1362.930, 1032.688 1364.603, 1037.939 1326.500 C 1040.137 1310.550, 1042.194 1295.647, 1042.509 1293.383 L 1043.083 1289.266 1048.791 1288.595 C 1054.291 1287.949, 1077.791 1282.800, 1081.123 1281.512 C 1082.784 1280.869, 1084.128 1282.906, 1110.957 1326.750 C 1116.089 1335.138, 1120.631 1342, 1121.051 1342 C 1121.470 1342, 1124.745 1340.685, 1128.327 1339.078 C 1131.909 1337.470, 1140.164 1334.027, 1146.670 1331.426 C 1153.177 1328.825, 1158.795 1326.428, 1159.155 1326.099 C 1159.875 1325.440, 1159.749 1324.800, 1151.030 1284.500 C 1145.317 1258.099, 1145.072 1256.425, 1146.736 1255.181 C 1147.706 1254.456, 1155.229 1249.588, 1163.453 1244.363 C 1175.871 1236.475, 1178.754 1235.028, 1180.453 1235.828 C 1181.579 1236.358, 1194.230 1246.228, 1208.567 1257.762 L 1234.634 1278.732 1239.240 1274.616 C 1262.206 1254.096, 1266.034 1250.370, 1265.665 1248.897 C 1265.444 1248.015, 1258.293 1236.315, 1249.773 1222.897 C 1241.252 1209.478, 1233.055 1196.370, 1231.556 1193.768 L 1228.831 1189.035 1236.665 1179.216 C 1240.974 1173.815, 1246.630 1166.616, 1249.234 1163.218 L 1253.967 1157.040 1286.234 1168.012 C 1303.980 1174.046, 1318.958 1178.987, 1319.518 1178.992 C 1320.659 1179.001, 1340.035 1143.634, 1339.937 1141.722 C 1339.903 1141.050, 1329.708 1132.625, 1317.281 1123 C 1304.854 1113.375, 1292.550 1103.836, 1289.940 1101.803 L 1285.192 1098.106 1291.511 1078.803 L 1297.829 1059.500 1313.664 1058.885 C 1322.374 1058.547, 1336.925 1058.157, 1346 1058.017 C 1355.075 1057.878, 1363.824 1057.479, 1365.441 1057.132 L 1368.383 1056.500 1371.486 1035.675 C 1374.239 1017.196, 1374.415 1014.759, 1373.044 1014.040 C 1372.195 1013.595, 1360.700 1009.775, 1347.500 1005.552 C 1314.346 994.946, 1307.994 992.799, 1307.522 992.036 C 1307.298 991.673, 1307.028 982.629, 1306.923 971.938 L 1306.733 952.500 1317.116 948.163 C 1322.827 945.778, 1337.362 939.816, 1349.416 934.914 C 1361.469 930.012, 1371.437 925.889, 1371.567 925.751 C 1371.957 925.336, 1362.315 884.982, 1361.673 884.339 C 1361.346 884.013, 1348.798 884.249, 1333.789 884.864 C 1318.780 885.479, 1303.350 886.066, 1299.501 886.167 L 1292.502 886.352 1284.773 867.711 L 1277.044 849.071 1282.752 843.786 C 1285.891 840.879, 1291.169 836.010, 1294.480 832.967 C 1297.791 829.924, 1306.909 821.438, 1314.742 814.110 L 1328.984 800.786 1327.128 798.143 C 1326.107 796.689, 1321.121 788.750, 1316.047 780.500 C 1310.974 772.250, 1306.658 765.333, 1306.457 765.129 C 1306.256 764.925, 1301.008 766.916, 1294.796 769.553 C 1288.583 772.191, 1274.050 778.319, 1262.500 783.173 L 1241.500 791.998 1236 785.827 C 1232.975 782.433, 1226.787 775.603, 1222.250 770.649 C 1217.713 765.695, 1214 761.131, 1214 760.507 C 1214 759.884, 1221.456 745.730, 1230.569 729.055 C 1239.681 712.380, 1246.769 698.390, 1246.319 697.967 C 1245.868 697.543, 1238.750 691.915, 1230.500 685.461 C 1222.250 679.006, 1215.002 673.335, 1214.392 672.858 C 1213.672 672.295, 1207.028 677.816, 1195.392 688.647 C 1179.090 703.822, 1171.107 711.194, 1163.897 717.732 L 1161.295 720.092 1143.647 710.454 C 1133.941 705.153, 1126 700.433, 1126 699.965 C 1126 698.508, 1131.985 655.829, 1133.077 649.500 C 1136.185 631.487, 1137.028 625.516, 1136.617 624.444 C 1136.366 623.790, 1132.862 622.463, 1128.830 621.496 C 1124.799 620.528, 1116.443 618.221, 1110.261 616.368 C 1104.080 614.516, 1098.813 613, 1098.557 613 C 1097.570 613, 1084.526 636.013, 1070.500 662.500 C 1063.301 676.093, 1061.097 679.480, 1059.499 679.403 C 1057.268 679.294, 1026.674 675.102, 1023.427 674.460 C 1021.646 674.109, 1021.037 672.456, 1019.117 662.775 C 1017.887 656.574, 1014.891 643.175, 1012.458 633 C 1010.025 622.825, 1007.239 611.157, 1006.267 607.070 C 1005.295 602.984, 1004.050 599.575, 1003.500 599.494 C 1002.950 599.414, 994.475 599.642, 984.666 600.001 M 481.500 600.636 C 467.890 602.756, 453.363 607.225, 443.205 612.416 C 426.023 621.197, 402.661 643.668, 392.695 661 C 389.168 667.135, 383.548 684.350, 381.057 696.657 C 375.004 726.551, 382.603 759.982, 401.478 786.500 C 426.036 821.002, 463.972 839.670, 505.500 837.689 C 544.337 835.837, 577.228 816.431, 599.848 782.024 C 613.763 760.859, 619.795 738.020, 618.706 710.623 C 617.881 689.889, 612.865 672.506, 602.817 655.563 C 593.341 639.585, 564.017 616.094, 544.193 608.601 C 528.599 602.707, 518.584 600.826, 501 600.487 C 491.925 600.311, 483.150 600.379, 481.500 600.636 M 484.500 602.656 C 462.145 605.310, 444.489 612.927, 424.970 628.337 C 402.094 646.397, 392.543 661.906, 384.995 693.251 C 381.054 709.615, 380.454 716.525, 381.916 728.654 C 384.983 754.077, 391.946 770.546, 408.068 790.500 C 424.465 810.797, 446.674 825.382, 470.723 831.649 C 483.760 835.047, 505.332 835.951, 518.516 833.653 C 556.056 827.108, 586.761 803.733, 604.096 768.500 C 621.828 732.461, 620.383 690.949, 600.202 656.610 C 594.702 647.250, 583.974 636.413, 569.914 626.014 C 554.924 614.926, 535.636 606.516, 518.240 603.483 C 510.629 602.155, 492.464 601.710, 484.500 602.656 M 484.731 605.170 C 457.883 607.929, 423.860 627.440, 406.454 650.060 C 397.355 661.885, 393.520 670.149, 387.748 690.376 C 384.733 700.941, 384.575 702.355, 384.606 718.500 C 384.643 737.205, 386.096 745.533, 391.989 760.815 C 395.692 770.418, 398.639 775.110, 408.951 787.819 C 426.998 810.061, 446.521 822.726, 473.088 829.426 C 503.484 837.091, 536.526 830.970, 563.463 812.684 C 577.404 803.221, 593.667 784.475, 601.662 768.654 C 616.552 739.190, 617.848 702.516, 605.082 671.851 C 601.726 663.790, 593.344 649.562, 590.339 646.825 C 558.841 618.137, 538.504 607.819, 508 605.050 C 501.675 604.476, 495.825 604.066, 495 604.138 C 494.175 604.210, 489.554 604.675, 484.731 605.170 M 484 607.065 C 467.513 609.101, 449.645 616.195, 434.663 626.654 C 422.400 635.214, 417.341 639.768, 412.399 646.693 C 409.935 650.147, 406.122 655.048, 403.926 657.586 C 401.729 660.123, 398.870 664.297, 397.571 666.860 C 394.695 672.535, 388.528 692.166, 386.899 700.827 C 385.413 708.731, 386.250 731.681, 388.386 741.615 C 391.047 753.992, 398.759 771.911, 403.341 776.365 C 404.550 777.539, 406.856 780.300, 408.467 782.500 C 429.239 810.871, 460.041 827.967, 493.500 829.695 C 525.867 831.367, 555.801 819.415, 578.697 795.680 C 593.439 780.397, 602.141 765.001, 607.742 744.294 C 610.135 735.447, 610.395 732.759, 610.434 716.500 C 610.473 699.893, 610.266 697.743, 607.753 688.715 C 601.535 666.380, 592.680 651.300, 578.687 639.219 C 561.260 624.173, 544.385 614.225, 530 610.520 C 514.500 606.528, 498.242 605.307, 484 607.065 M 486.950 625.976 C 478.924 626.981, 467.568 630.286, 459.313 634.019 C 437.444 643.910, 418.963 666.171, 411.417 691.712 C 407.704 704.276, 407.019 722.763, 409.775 736.042 C 418.321 777.223, 453.151 807.612, 494.229 809.728 C 520.776 811.096, 543.930 801.962, 563.344 782.464 C 582.466 763.259, 592.097 738.550, 590.720 712.229 C 588.746 674.511, 564.945 642.350, 530.685 631.108 C 515.941 626.269, 499.769 624.372, 486.950 625.976 M 485.254 629.630 C 474.748 631.244, 461.009 635.633, 454.472 639.464 C 442.206 646.652, 427.467 662.733, 420.756 676.247 C 413.077 691.714, 410.393 704.949, 411.315 722.798 C 412.036 736.746, 413.711 743.479, 419.453 755.500 C 424.653 766.385, 428.836 772.293, 437.717 781.292 C 455.283 799.091, 478.096 807.965, 502.977 806.677 C 516.363 805.984, 523.372 804.293, 534.619 799.043 C 545.773 793.836, 553.240 788.529, 561.609 779.862 C 592.227 748.152, 596.763 702.687, 572.872 666.970 C 560.395 648.316, 545.068 637.621, 522.901 632.099 C 508.540 628.522, 497.280 627.783, 485.254 629.630 M 1406.199 640.724 C 1405.613 642.251, 1404.833 644.625, 1404.465 646 C 1404.097 647.375, 1402.688 651.680, 1401.333 655.567 L 1398.870 662.634 1389.901 666.433 L 1380.931 670.231 1370.638 665.115 C 1364.977 662.302, 1359.705 659.987, 1358.922 659.970 C 1358.140 659.954, 1353.163 664.539, 1347.862 670.161 L 1338.224 680.382 1341.712 687.941 C 1348.901 703.520, 1348.761 702.370, 1344.699 712.541 L 1341.121 721.500 1329.061 725.865 L 1317 730.229 1317 744.527 L 1317 758.825 1323.750 761.371 C 1327.463 762.771, 1332.735 764.731, 1335.466 765.727 C 1340.380 767.518, 1340.472 767.633, 1344.380 776.775 L 1348.328 786.013 1343.229 797.750 L 1338.130 809.488 1344.315 815.994 C 1347.717 819.572, 1352.374 824.211, 1354.665 826.301 L 1358.829 830.102 1369.665 824.713 L 1380.500 819.323 1389.483 823.006 L 1398.465 826.688 1403.036 838.594 L 1407.607 850.500 1421.892 850.500 L 1436.178 850.500 1440.690 838.250 C 1443.171 831.513, 1445.719 825.995, 1446.351 825.988 C 1446.983 825.981, 1450.919 824.483, 1455.097 822.658 L 1462.694 819.341 1473.995 824.671 C 1480.210 827.602, 1485.470 830, 1485.684 830 C 1486.895 830, 1504.955 810.227, 1504.975 808.879 C 1504.989 807.987, 1502.735 802.516, 1499.967 796.720 L 1494.934 786.184 1498.578 777.342 C 1500.582 772.479, 1502.353 768.356, 1502.514 768.181 C 1502.674 768.005, 1507.912 765.969, 1514.153 763.658 L 1525.500 759.454 1525.500 744.610 L 1525.500 729.765 1521 728.032 C 1518.525 727.078, 1513.291 725.087, 1509.370 723.607 L 1502.239 720.917 1498.510 712.025 L 1494.782 703.133 1499.891 692.139 C 1502.701 686.092, 1504.987 680.775, 1504.971 680.322 C 1504.935 679.276, 1486.536 660, 1485.573 660 C 1485.178 660, 1479.892 662.306, 1473.826 665.125 L 1462.796 670.251 1453.724 666.305 C 1443.620 661.911, 1444.930 663.670, 1438.981 646.500 L 1436.209 638.500 1421.736 638.224 L 1407.264 637.948 1406.199 640.724 M 1408 643.420 C 1408 646.418, 1402.251 663.071, 1400.663 664.673 C 1400.023 665.318, 1395.271 667.507, 1390.101 669.538 L 1380.702 673.230 1370.216 668.141 C 1364.337 665.287, 1359.188 663.370, 1358.496 663.776 C 1357.817 664.174, 1353.755 668.240, 1349.469 672.811 L 1341.678 681.121 1346.767 692.072 L 1351.856 703.023 1347.895 712.759 C 1345.716 718.114, 1343.385 722.990, 1342.716 723.593 C 1342.047 724.197, 1336.662 726.385, 1330.750 728.454 L 1320 732.218 1320 744.521 L 1320 756.825 1327.750 759.768 C 1332.013 761.387, 1337.079 763.225, 1339.009 763.854 C 1342.157 764.879, 1342.912 765.896, 1346.347 773.748 C 1348.453 778.562, 1350.411 783.497, 1350.698 784.715 C 1351.022 786.089, 1349.393 791.134, 1346.408 798.006 L 1341.596 809.081 1350.278 817.764 L 1358.961 826.447 1369.730 821.153 L 1380.500 815.860 1387 818.797 C 1390.575 820.412, 1395.104 822.251, 1397.065 822.884 C 1400.486 823.986, 1400.809 824.519, 1405.058 836.045 L 1409.486 848.056 1421.877 847.778 L 1434.268 847.500 1438.306 836.127 C 1442.111 825.410, 1442.551 824.670, 1445.922 823.306 C 1447.890 822.509, 1452.376 820.534, 1455.890 818.916 L 1462.280 815.974 1473.068 820.987 C 1479.001 823.744, 1484.333 826, 1484.917 826 C 1485.967 826, 1501.195 810.617, 1501.827 808.919 C 1502.006 808.436, 1499.837 803.163, 1497.007 797.202 L 1491.860 786.364 1495.586 776.932 C 1497.636 771.744, 1499.723 766.967, 1500.225 766.315 C 1500.726 765.663, 1506.065 763.413, 1512.088 761.315 L 1523.038 757.500 1522.769 744.596 L 1522.500 731.692 1512 727.836 C 1505.603 725.487, 1500.935 723.159, 1500.055 721.880 C 1499.260 720.724, 1497.063 715.973, 1495.174 711.320 L 1491.738 702.861 1496.902 691.733 L 1502.066 680.605 1493.409 671.909 L 1484.753 663.212 1474.127 668.175 C 1468.021 671.026, 1462.649 672.933, 1461.500 672.656 C 1460.400 672.392, 1455.659 670.494, 1450.965 668.439 L 1442.431 664.703 1439.050 655.602 C 1437.190 650.596, 1435.556 645.600, 1435.418 644.500 C 1435.280 643.400, 1435.129 642.163, 1435.083 641.750 C 1435.037 641.337, 1428.925 641, 1421.500 641 L 1408 641 1408 643.420 M 972.743 687.086 C 922.929 691.199, 872.233 709.609, 827.866 739.696 C 822.260 743.498, 820.914 744.025, 819.182 743.097 C 818.054 742.494, 815.257 742, 812.966 742 C 809.562 742, 808.178 742.622, 805.400 745.400 C 802.437 748.363, 802 749.445, 802 753.817 C 802 756.576, 801.615 758.983, 801.145 759.167 C 798.815 760.076, 784.879 773.576, 776.235 783.297 C 747.064 816.106, 728.517 847.849, 715.060 888 C 707.736 909.852, 701.234 939.338, 703.210 941.741 C 703.797 942.455, 703.954 944.824, 703.578 947.326 C 700.763 966.100, 701.201 1003.111, 704.503 1025.461 C 711.230 1070.990, 729.791 1117.596, 755.381 1153.211 C 760.748 1160.681, 760.876 1161.010, 759.467 1163.711 C 757.127 1168.198, 757.654 1171.652, 761.284 1175.613 C 763.952 1178.524, 765.490 1179.301, 769.477 1179.750 C 773.395 1180.192, 774.893 1180.928, 776.907 1183.402 C 782.514 1190.287, 797.050 1204.682, 806 1212.211 C 844.050 1244.222, 889.314 1266.038, 939.514 1276.561 C 946.456 1278.017, 953.567 1278.988, 955.318 1278.719 C 957.068 1278.451, 964.125 1278.850, 971 1279.605 C 985.966 1281.251, 1009.543 1281.399, 1024.576 1279.940 C 1076.571 1274.897, 1123.796 1257.912, 1165.254 1229.344 C 1174.215 1223.169, 1176.329 1222.106, 1177.938 1222.967 C 1185.190 1226.848, 1196.548 1218.305, 1194.578 1210.453 C 1194.116 1208.613, 1195.124 1207.224, 1199.966 1203.029 C 1208.528 1195.612, 1227.074 1174.784, 1237.225 1161.187 C 1258.216 1133.070, 1274.815 1099.605, 1284.601 1065.673 C 1298.831 1016.338, 1299.150 952.847, 1285.413 904.500 C 1276.354 872.619, 1263.525 844.726, 1245.796 818.365 C 1237.637 806.233, 1237.043 805.017, 1238.022 802.441 C 1239.194 799.361, 1238.484 794.668, 1236.355 791.419 C 1234.566 788.689, 1230.788 787, 1226.468 787 C 1223.373 787, 1221.607 785.568, 1208.765 772.647 C 1200.919 764.752, 1190.596 755.083, 1185.823 751.158 C 1165.481 734.430, 1133.478 715.720, 1108 705.660 C 1084.651 696.441, 1055.391 688.974, 1040.500 688.434 C 1035.550 688.255, 1027.225 687.641, 1022 687.071 C 1011.166 685.889, 987.146 685.896, 972.743 687.086 M 1406.500 689.870 C 1381.807 696.978, 1364.973 719.202, 1365.012 744.644 C 1365.045 766.452, 1377.107 785.956, 1396.500 795.560 C 1418.862 806.633, 1443.091 802.841, 1460.611 785.527 C 1468.156 778.070, 1472.510 770.792, 1475.614 760.448 C 1478.026 752.407, 1478.029 736.628, 1475.620 728.500 C 1469.814 708.912, 1453.097 693.009, 1434.201 689.097 C 1426.516 687.506, 1413.444 687.871, 1406.500 689.870 M 1040.300 691.961 C 1039.858 693.652, 1039.189 693.994, 1037.120 693.588 C 1021.223 690.474, 982.050 690.424, 959.578 693.490 C 915.435 699.512, 876.011 714.538, 835.376 740.827 L 825.253 747.377 825.376 752.591 C 825.452 755.775, 825.889 757.569, 826.500 757.199 C 827.050 756.867, 830.857 754.191, 834.960 751.254 C 845.355 743.812, 864.721 732.710, 865.966 733.479 C 867.918 734.685, 866.990 735.815, 861.500 738.913 C 858.475 740.620, 856 742.445, 856 742.968 C 856 743.491, 857.182 745.875, 858.626 748.266 L 861.252 752.614 875.376 745.480 C 908.742 728.626, 946.238 717.900, 979.500 715.692 L 984.500 715.360 979 715.200 C 961.550 714.690, 926.710 722.547, 899.617 733.103 C 889.711 736.962, 888 737.154, 888 734.405 C 888 730.192, 932.019 716.516, 959 712.346 C 967.797 710.987, 976.728 710.561, 997 710.535 C 1027.957 710.494, 1035 711.166, 1035 714.157 C 1035 716.002, 1034.459 716.143, 1028.546 715.835 C 1018.810 715.330, 1022.036 716.504, 1035.500 718.369 C 1042.100 719.282, 1048.443 720.283, 1049.597 720.592 C 1051.463 721.091, 1051.820 720.523, 1052.847 715.410 C 1053.481 712.251, 1053.841 709.508, 1053.646 709.313 C 1052.093 707.759, 1030.447 705.167, 1004.815 703.466 C 997.059 702.951, 995.239 702.542, 995.672 701.412 C 996.341 699.668, 1008.777 699.502, 1024.144 701.030 C 1097.464 708.320, 1159.065 739.370, 1208.336 793.872 C 1214.118 800.268, 1215 800.915, 1215 798.761 C 1215 797.396, 1216.145 794.592, 1217.544 792.531 C 1220.545 788.108, 1220.497 788, 1211.333 778.374 C 1168.862 733.764, 1111.212 702.855, 1050 691.875 C 1046.975 691.332, 1043.681 690.648, 1042.680 690.355 C 1041.406 689.981, 1040.692 690.463, 1040.300 691.961 M 1408.870 692.060 C 1402.762 693.505, 1394.789 697.485, 1388.751 702.103 C 1359.736 724.293, 1361.291 769.096, 1391.778 789.349 C 1425.189 811.545, 1468.401 792.136, 1474.195 752.331 C 1478.087 725.589, 1461.865 700.173, 1436.068 692.595 C 1430.205 690.873, 1415.139 690.576, 1408.870 692.060 M 933.500 706.789 C 922.200 709.297, 878 725.409, 878 727.020 C 878 729.242, 880.659 728.726, 890.197 724.655 C 900.873 720.098, 917.721 714.389, 929 711.506 C 932.575 710.593, 935.928 709.430, 936.450 708.923 C 937.809 707.603, 935.936 706.249, 933.500 706.789 M 1057.619 711.750 C 1056.421 715.820, 1052 738.213, 1052 740.216 C 1052 741.535, 1052.352 742.024, 1052.888 741.450 C 1053.795 740.480, 1060 714.406, 1060 711.566 C 1060 709.442, 1058.260 709.576, 1057.619 711.750 M 1063.996 711.781 C 1063.994 712.177, 1062.423 719.216, 1060.505 727.425 C 1058.587 735.634, 1057.246 742.579, 1057.525 742.859 C 1058.708 744.042, 1059.912 740.745, 1062.953 728 C 1064.725 720.575, 1066.332 713.975, 1066.524 713.333 C 1066.716 712.691, 1066.227 711.917, 1065.437 711.614 C 1064.647 711.311, 1063.998 711.386, 1063.996 711.781 M 1070.677 713.750 C 1070.435 714.163, 1068.577 720.971, 1066.548 728.880 C 1064.097 738.439, 1063.195 743.595, 1063.857 744.257 C 1064.520 744.920, 1065.234 743.787, 1065.987 740.877 C 1066.610 738.470, 1068.442 731.754, 1070.060 725.954 C 1071.677 720.154, 1073 714.867, 1073 714.204 C 1073 712.879, 1071.376 712.561, 1070.677 713.750 M 989.813 714.683 C 990.534 714.972, 991.397 714.936, 991.729 714.604 C 992.061 714.272, 991.471 714.036, 990.417 714.079 C 989.252 714.127, 989.015 714.364, 989.813 714.683 M 1007.813 715.683 C 1008.534 715.972, 1009.397 715.936, 1009.729 715.604 C 1010.061 715.272, 1009.471 715.036, 1008.417 715.079 C 1007.252 715.127, 1007.015 715.364, 1007.813 715.683 M 1076.138 718.250 C 1070.646 735.808, 1068.095 748.238, 1070.471 745.862 C 1070.731 745.603, 1072.925 738.553, 1075.347 730.195 C 1078.494 719.337, 1079.380 715, 1078.453 715 C 1077.739 715, 1076.698 716.462, 1076.138 718.250 M 1078.714 731.685 C 1076.171 740.342, 1074.303 747.636, 1074.562 747.895 C 1075.658 748.992, 1077.024 745.729, 1081.005 732.500 C 1085.966 716.015, 1085.788 716.857, 1084.418 716.348 C 1083.780 716.110, 1081.443 722.392, 1078.714 731.685 M 986.500 718.131 C 952.608 719.390, 920.494 727.156, 888.241 741.890 C 879.391 745.933, 865.036 753.205, 863.159 754.596 C 862.860 754.818, 868.420 765.104, 870.888 768.893 C 871.632 770.037, 872.662 769.799, 876.647 767.564 C 885.997 762.319, 907.222 752.931, 918.807 748.916 C 942.014 740.874, 966.334 736.786, 992 736.612 L 1008.500 736.500 1006.500 732.184 L 1004.500 727.868 989 728.339 C 957.410 729.299, 923.419 736.922, 896.122 749.169 C 890.631 751.633, 889.438 751.866, 888.273 750.702 C 886.385 748.813, 887.528 748.004, 898.500 743.455 C 928.654 730.956, 954.557 725.289, 986.063 724.299 L 1004.627 723.716 1006.211 720.955 C 1007.725 718.317, 1007.700 718.179, 1005.648 717.847 C 1004.467 717.656, 995.850 717.784, 986.500 718.131 M 1010.328 720.394 C 1006.923 723.323, 1006.442 729.621, 1009.376 732.863 C 1013.566 737.493, 1021.528 735.968, 1023.972 730.067 C 1027.605 721.297, 1017.559 714.175, 1010.328 720.394 M 1026.628 722.653 C 1028.012 725.964, 1027.999 726.713, 1026.496 730.649 C 1025.584 733.037, 1024.087 735.413, 1023.169 735.928 C 1020.873 737.218, 1022.144 737.549, 1034.848 738.976 C 1040.540 739.615, 1045.725 740.341, 1046.369 740.588 C 1047.136 740.882, 1048.157 738.047, 1049.319 732.401 C 1050.297 727.651, 1050.949 723.615, 1050.767 723.433 C 1050.367 723.033, 1028.177 719, 1026.376 719 C 1025.390 719, 1025.447 719.826, 1026.628 722.653 M 1084.722 733.250 C 1082.107 741.087, 1079.989 748.175, 1080.015 749 C 1080.126 752.440, 1083.102 746.193, 1087.112 734.107 C 1089.412 727.173, 1091.501 720.938, 1091.754 720.250 C 1092.007 719.563, 1091.598 719, 1090.845 719 C 1089.973 719, 1087.750 724.173, 1084.722 733.250 M 1090.282 735.714 C 1085.397 749.457, 1084.663 752.737, 1086.994 750.406 C 1087.927 749.473, 1097.994 723.257, 1097.998 721.750 C 1097.999 721.337, 1097.438 721.007, 1096.750 721.016 C 1096.049 721.024, 1093.209 727.477, 1090.282 735.714 M 1101.064 725.250 C 1091.120 750.501, 1089.686 754.930, 1091.894 753.566 C 1092.835 752.984, 1104 725.712, 1104 723.996 C 1104 722.122, 1101.952 722.997, 1101.064 725.250 M 1105.882 730.750 C 1103.034 737.360, 1096 755.111, 1096 755.690 C 1096 755.952, 1096.480 756.007, 1097.067 755.811 C 1098.213 755.429, 1110 729.433, 1110 727.287 C 1110 724.435, 1107.810 726.277, 1105.882 730.750 M 1110.517 736.693 C 1108.443 741.537, 1105.425 748.133, 1103.808 751.351 C 1102.192 754.569, 1101.160 757.494, 1101.516 757.850 C 1102.543 758.876, 1104.279 755.917, 1110.517 742.506 C 1114.539 733.860, 1116.033 729.633, 1115.321 728.921 C 1114.608 728.208, 1113.113 730.626, 1110.517 736.693 M 1113.652 745.049 C 1107.033 759.028, 1106.305 761, 1107.766 761 C 1108.860 761, 1123.008 732.341, 1122.275 731.608 C 1120.899 730.232, 1120.018 731.604, 1113.652 745.049 M 1118.901 748.425 C 1114.898 756.417, 1111.933 763.266, 1112.312 763.645 C 1113.231 764.564, 1112.783 765.283, 1120.809 750 C 1128.334 735.668, 1128.710 734.737, 1127.165 734.222 C 1126.623 734.041, 1122.904 740.432, 1118.901 748.425 M 1124.557 751.024 C 1120.302 758.796, 1117.123 765.457, 1117.492 765.826 C 1118.443 766.777, 1120.220 764.119, 1127.646 750.640 C 1131.740 743.209, 1133.828 738.428, 1133.237 737.837 C 1132.646 737.246, 1129.405 742.170, 1124.557 751.024 M 1137.725 740.663 C 1130.235 753.190, 1122.049 768.383, 1122.531 768.864 C 1123.374 769.707, 1124.828 767.635, 1133.183 753.680 C 1137.978 745.669, 1139.932 741.532, 1139.242 740.842 C 1138.683 740.283, 1138 740.202, 1137.725 740.663 M 976.500 741.685 C 929.302 745.804, 880.707 765.645, 845.500 795.170 C 834.668 804.255, 815.817 823.539, 807.168 834.383 C 780.845 867.389, 765.591 903.812, 758.329 951 C 756.129 965.293, 755.842 1002.319, 757.837 1014.500 C 764.820 1057.148, 775.977 1087.473, 795.729 1117.500 C 830.172 1169.860, 887.105 1208.481, 948.928 1221.424 C 966.461 1225.094, 978.749 1226.317, 998 1226.306 C 1029.674 1226.289, 1054.269 1221.962, 1082.891 1211.372 C 1105.689 1202.937, 1133.573 1186.874, 1151.752 1171.703 C 1169.464 1156.923, 1191.707 1131.336, 1203.652 1112 C 1220.957 1083.987, 1231.644 1054.609, 1237.666 1018.500 C 1239.134 1009.692, 1239.495 1002.120, 1239.473 980.500 C 1239.443 950.712, 1238.719 944.487, 1232.500 920.500 C 1219.337 869.727, 1187.279 822.184, 1144.504 790 C 1108.531 762.933, 1066.903 746.622, 1022.144 742.056 C 1012.591 741.082, 985.901 740.865, 976.500 741.685 M 1135.140 757.570 C 1130.565 765.041, 1127.094 771.427, 1127.427 771.760 C 1128.283 772.616, 1128.820 771.909, 1137.400 758.648 C 1145.543 746.061, 1146.085 744.969, 1144.480 744.368 C 1143.919 744.158, 1139.716 750.099, 1135.140 757.570 M 807.248 747.250 C 806.093 748.487, 804.823 750.811, 804.424 752.414 C 803.820 754.848, 803.968 755.226, 805.317 754.708 C 807.715 753.788, 817 746.698, 817 745.787 C 817 745.354, 815.278 745, 813.174 745 C 810.496 745, 808.719 745.675, 807.248 747.250 M 845.930 751.631 C 836.193 757.629, 835.529 758.290, 836.885 760.633 C 840.367 766.647, 840.200 766.640, 848.590 761.132 C 852.837 758.344, 856.781 755.906, 857.354 755.715 C 858.043 755.486, 857.954 754.303, 857.090 752.217 C 854.808 746.708, 853.992 746.665, 845.930 751.631 M 1140.724 760.355 C 1135.926 767.674, 1132 773.963, 1132 774.331 C 1132 776.911, 1135.146 773.267, 1142.669 761.973 C 1148.146 753.751, 1150.997 748.597, 1150.397 747.997 C 1149.798 747.398, 1146.230 751.956, 1140.724 760.355 M 812.575 753.090 C 806.095 757.995, 805.914 758.248, 807.581 760.090 C 810.355 763.155, 816.496 762.658, 820.077 759.077 C 821.685 757.469, 823 755.190, 823 754.011 C 823 751.531, 821.305 748, 820.114 748 C 819.665 748, 816.273 750.290, 812.575 753.090 M 978.075 751.038 C 934.076 755.289, 893.983 770.401, 859.999 795.544 C 808.068 833.965, 775.955 888.929, 766.834 955 C 765.123 967.399, 765.142 1003.774, 766.867 1015.500 C 771.242 1045.248, 778.797 1069.286, 791.227 1093 C 827.132 1161.499, 893.212 1206.889, 970.970 1216.464 C 1032.252 1224.011, 1095.588 1205.773, 1144.500 1166.495 C 1154.647 1158.347, 1172.281 1140.765, 1180.099 1131 C 1193.789 1113.904, 1208.507 1088.105, 1216.327 1067.500 C 1238.855 1008.142, 1236.092 938.493, 1208.988 882.500 C 1178.050 818.586, 1118.523 771.178, 1050.235 756.065 C 1028.276 751.205, 998.104 749.103, 978.075 751.038 M 1151.807 755.684 C 1144.274 766.166, 1137 776.835, 1137 777.402 C 1137 779.679, 1140.019 776.369, 1147.982 765.363 C 1153.610 757.584, 1156.768 752.368, 1156.196 751.796 C 1155.625 751.225, 1153.937 752.719, 1151.807 755.684 M 971.258 756.511 C 907.270 764.637, 852.523 796.670, 814.042 848.500 C 792.552 877.444, 779.057 910.505, 772.336 950.673 C 769.497 967.636, 769.765 1006.113, 772.841 1023.316 C 778.938 1057.411, 790.371 1086.333, 808.295 1113 C 818.557 1128.269, 835.632 1147.196, 850 1159.229 C 914.010 1212.836, 1002.949 1228.117, 1079.253 1198.618 C 1140.881 1174.792, 1187.366 1128.384, 1211.547 1066.541 C 1221.947 1039.942, 1226.395 1014.950, 1226.413 983 C 1226.436 944.711, 1220.002 916.071, 1204.061 883.500 C 1171.148 816.251, 1106.683 769.035, 1032 757.477 C 1017.338 755.208, 985.502 754.702, 971.258 756.511 M 1151.250 767.491 C 1142.649 779.031, 1140.856 782.079, 1142.750 781.948 C 1143.647 781.886, 1161.790 757.928, 1162.002 756.525 C 1162.476 753.397, 1159.467 756.466, 1151.250 767.491 M 851.748 761.902 C 847.619 764.597, 843.939 767.290, 843.571 767.885 C 842.819 769.103, 850.432 780.845, 852.485 781.633 C 854.014 782.219, 868 773.231, 868 771.661 C 868 770.606, 860.190 757, 859.584 757 C 859.404 757, 855.878 759.206, 851.748 761.902 M 827.385 760.186 C 825.798 761.388, 824.350 762.475, 824.168 762.602 C 823.718 762.912, 831.286 773.001, 831.963 772.995 C 832.259 772.992, 833.761 771.980, 835.303 770.745 L 838.106 768.500 834.188 763.250 L 830.270 758 827.385 760.186 M 1157.977 769.090 C 1148.321 781.210, 1146.522 783.856, 1147.365 784.698 C 1147.714 785.047, 1148.138 785.146, 1148.307 784.917 C 1148.476 784.688, 1152.604 779.550, 1157.481 773.500 C 1162.357 767.450, 1166.741 761.978, 1167.222 761.339 C 1167.737 760.656, 1167.681 759.921, 1167.085 759.553 C 1166.529 759.209, 1162.430 763.501, 1157.977 769.090 M 795 767.867 C 779.034 782.470, 757.247 809.150, 744.958 829.148 C 729.178 854.827, 715.152 890.565, 708.126 923 C 704.457 939.935, 704.450 940.044, 706.991 940.708 C 709.011 941.236, 709.172 941.738, 708.659 945.896 C 706.359 964.530, 705.725 983.932, 706.896 999.809 C 710.908 1054.207, 726.175 1099.928, 754.586 1142.635 L 763.989 1156.769 768.897 1156.769 L 773.804 1156.769 766.510 1145.635 C 742.439 1108.892, 726.536 1069.910, 720.024 1031.682 C 716.626 1011.733, 714.666 977.880, 715.991 962 C 719.534 919.524, 727.635 889.697, 745.157 854.620 C 761.224 822.455, 785.802 791.357, 813.007 768.770 L 817.500 765.039 813.500 765.013 C 811.221 764.998, 808.209 764.132, 806.500 763 C 804.850 761.907, 803.275 761.012, 803 761.010 C 802.725 761.008, 799.125 764.094, 795 767.867 M 1164.871 770.726 C 1153.046 784.910, 1150.896 787.818, 1151.817 788.387 C 1152.319 788.697, 1155.797 785.249, 1159.547 780.725 C 1163.296 776.201, 1167.948 770.813, 1169.884 768.751 C 1172.288 766.191, 1173.078 764.678, 1172.378 763.978 C 1171.677 763.277, 1169.298 765.416, 1164.871 770.726 M 1166.193 778.919 C 1157.159 789.496, 1154.206 793.885, 1156.832 792.833 C 1157.290 792.650, 1162.298 787.180, 1167.960 780.677 C 1174.343 773.347, 1177.900 768.500, 1177.320 767.920 C 1176.741 767.341, 1172.512 771.520, 1166.193 778.919 M 814.554 775.614 C 810.399 779.252, 807 782.543, 807 782.927 C 807 783.312, 808.347 784.916, 809.993 786.494 L 812.987 789.361 815.243 787.338 C 822.810 780.555, 825.332 778.413, 826.589 777.700 C 827.365 777.260, 828 776.455, 828 775.910 C 828 774.603, 823.837 769, 822.866 769 C 822.449 769, 818.709 771.976, 814.554 775.614 M 835.660 773.053 L 833.050 775.106 838.249 782.053 C 841.109 785.874, 843.953 789, 844.569 789 C 845.784 789, 849 785.807, 849 784.600 C 849 783.423, 839.909 771, 839.047 771 C 838.620 771, 837.095 771.924, 835.660 773.053 M 1175.864 777.772 C 1167.360 786.794, 1161 794.599, 1161 796.013 C 1161 797.846, 1163.579 795.350, 1174.090 783.343 C 1183.579 772.506, 1184.981 768.098, 1175.864 777.772 M 1175.597 787.465 C 1169.302 794.289, 1165.202 799.517, 1165.616 800.188 C 1166.078 800.935, 1167.167 800.324, 1168.775 798.414 C 1170.125 796.811, 1175.078 791.548, 1179.782 786.717 C 1185.632 780.709, 1188.010 777.610, 1187.308 776.908 C 1186.605 776.205, 1182.905 779.541, 1175.597 787.465 M 821.844 784.933 L 814.500 791.866 820.628 798.051 C 827.574 805.061, 826.911 805.097, 835.437 797.260 L 841.138 792.021 835.819 785.044 C 832.894 781.206, 830.205 778.052, 829.844 778.033 C 829.483 778.015, 825.883 781.120, 821.844 784.933 M 1179.708 792.248 C 1173.922 798.434, 1169.428 803.883, 1169.720 804.356 C 1170.013 804.829, 1175.346 800.136, 1181.573 793.927 C 1191.685 783.843, 1193.771 781, 1191.055 781 C 1190.600 781, 1185.494 786.062, 1179.708 792.248 M 798.740 786.540 C 797.233 787.938, 796 789.440, 796 789.880 C 796 790.719, 803.547 798, 804.416 798 C 804.693 798, 806.031 796.800, 807.391 795.334 L 809.862 792.669 806.311 788.334 C 804.357 785.950, 802.471 784, 802.119 784 C 801.767 784, 800.247 785.143, 798.740 786.540 M 1184.436 796.731 C 1174.632 806.812, 1172.908 809, 1174.767 809 C 1175.746 809, 1197 787.714, 1197 786.734 C 1197 784.547, 1193.838 787.063, 1184.436 796.731 M 1195.003 794.497 L 1190.589 798.995 1194.497 802.997 C 1196.647 805.199, 1198.652 806.987, 1198.953 806.970 C 1199.254 806.954, 1201.490 805.220, 1203.923 803.117 L 1208.346 799.294 1204.461 794.647 C 1202.325 792.091, 1200.315 790, 1199.996 790 C 1199.677 790, 1197.430 792.024, 1195.003 794.497 M 1227.636 793.250 C 1229.302 795.038, 1231.634 797.790, 1232.819 799.367 C 1234.595 801.732, 1235.082 801.951, 1235.594 800.615 C 1237.300 796.170, 1232.662 790, 1227.615 790 L 1224.608 790 1227.636 793.250 M 1220.080 793.625 C 1214.721 800.438, 1220.024 807.984, 1229.500 807.029 C 1230.600 806.918, 1231.888 806.455, 1232.363 806.001 C 1233.134 805.262, 1225.076 792.783, 1222.998 791.499 C 1222.537 791.214, 1221.224 792.171, 1220.080 793.625 M 808.626 796.935 L 805.752 799.755 811.948 805.628 C 815.356 808.857, 818.534 811.641, 819.010 811.813 C 819.486 811.984, 820.818 811.182, 821.971 810.029 L 824.067 807.933 817.830 800.967 C 814.399 797.135, 811.572 794.026, 811.546 794.057 C 811.521 794.089, 810.207 795.384, 808.626 796.935 M 787.813 802.042 C 784.341 805.915, 781.364 809.474, 781.197 809.951 C 781.030 810.428, 782.550 812.081, 784.575 813.625 L 788.255 816.432 795.055 808.966 L 801.855 801.500 798.732 798.250 C 797.013 796.462, 795.274 795, 794.867 795 C 794.460 795, 791.286 798.169, 787.813 802.042 M 1183.093 806.406 L 1177.754 811.812 1181.013 815.867 C 1184.692 820.445, 1184.217 820.554, 1192.510 813.221 L 1197.348 808.941 1193.471 804.971 C 1191.339 802.787, 1189.333 801, 1189.013 801 C 1188.693 801, 1186.029 803.433, 1183.093 806.406 M 797.502 810.080 C 794.203 813.880, 791.371 817.387, 791.209 817.874 C 791.046 818.361, 793.909 821.142, 797.570 824.055 L 804.225 829.352 810.069 822.926 C 813.283 819.392, 815.933 816.077, 815.956 815.560 C 815.992 814.804, 809.544 808.310, 804.500 804.021 C 803.892 803.504, 801.152 805.876, 797.502 810.080 M 1204.417 806.416 L 1200.500 809.832 1204.115 813.666 C 1225.292 836.126, 1247.417 878.734, 1256.915 915.345 C 1263.412 940.388, 1264.480 949.741, 1264.491 981.675 L 1264.500 1010.850 1267.375 1011.425 C 1274.273 1012.804, 1274.659 1012.535, 1275.358 1005.853 C 1275.711 1002.473, 1276 991.322, 1276 981.073 C 1276 920.669, 1257.865 866.630, 1221.515 818.718 C 1212.235 806.487, 1209.405 803, 1208.756 803 C 1208.524 803, 1206.571 804.537, 1204.417 806.416 M 1223.462 812.766 C 1251.235 848.984, 1269.527 890.703, 1276.914 934.678 C 1287.639 998.522, 1277.462 1060.560, 1246.848 1117.958 C 1231.760 1146.247, 1205.842 1179.077, 1185.667 1195.454 L 1180.833 1199.378 1184.998 1200.607 C 1187.288 1201.284, 1190.002 1202.596, 1191.027 1203.525 C 1192.784 1205.114, 1193.066 1205.089, 1195.865 1203.096 C 1197.499 1201.932, 1203.430 1196.147, 1209.045 1190.240 C 1251.296 1145.788, 1277.855 1094.547, 1288.991 1036 C 1290.758 1026.707, 1290.673 1025.889, 1287.825 1024.766 C 1287.453 1024.620, 1287.527 1022.475, 1287.989 1020 C 1290.768 1005.106, 1291.664 976.994, 1289.964 958 C 1285.484 907.921, 1270.101 864.296, 1241.784 821.361 L 1233.778 809.223 1230.437 810.145 C 1227.985 810.822, 1226.131 810.664, 1223.464 809.550 L 1219.832 808.032 1223.462 812.766 M 1190.886 817.923 L 1184.271 823.729 1190.206 831.114 C 1216.543 863.893, 1234.748 905.966, 1240.565 947.500 C 1242.236 959.430, 1243.011 988.868, 1242 1001.988 L 1241.500 1008.476 1251.335 1009.506 C 1256.744 1010.072, 1261.371 1010.209, 1261.616 1009.812 C 1262.811 1007.878, 1263.155 972.143, 1262.100 959.500 C 1258.667 918.363, 1243.311 873.725, 1221.162 840.500 C 1211.471 825.962, 1200.450 811.979, 1198.748 812.059 C 1198.061 812.091, 1194.524 814.730, 1190.886 817.923 M 769.644 821.055 C 752.495 845.419, 737.874 875.340, 729.393 903.426 C 728.077 907.786, 727 911.481, 727 911.638 C 727 911.795, 728.913 912.417, 731.250 913.021 C 733.587 913.625, 736.254 914.337, 737.176 914.603 C 738.529 914.994, 739.366 913.392, 741.519 906.294 C 750.313 877.301, 763.681 850.519, 781.256 826.690 C 784.019 822.944, 785.879 819.544, 785.390 819.134 C 782.325 816.569, 776.992 813, 776.223 813 C 775.723 813, 772.762 816.625, 769.644 821.055 M 786.500 823.400 C 770.014 846.823, 762.813 859.071, 754.692 877.500 C 749.899 888.378, 743.567 906.353, 742.498 912.117 L 741.827 915.734 750.032 917.948 C 754.545 919.166, 758.546 919.788, 758.922 919.331 C 759.299 918.874, 760.626 915.125, 761.871 911 C 768.521 888.970, 778.784 867.246, 791.873 847.500 C 796.612 840.350, 800.817 834, 801.217 833.389 C 801.654 832.720, 799.531 830.404, 795.889 827.576 C 788.626 821.935, 787.792 821.564, 786.500 823.400 M 726.571 923.250 C 713.192 985.196, 721.133 1050.589, 748.701 1105.500 C 753.189 1114.441, 761.331 1129.314, 762.572 1130.841 C 763.110 1131.503, 766.865 1129.894, 769.355 1127.935 L 771.875 1125.953 767.278 1118.227 C 741.909 1075.588, 728.448 1022.993, 730.366 974 C 730.991 958.021, 733.674 936.908, 736.430 926.271 C 737.293 922.938, 738 919.735, 738 919.153 C 738 918.176, 732.049 916.018, 729.318 916.006 C 728.660 916.002, 727.442 919.214, 726.571 923.250 M 739.572 922.250 C 734.021 948.849, 732.652 963.506, 733.275 989.683 C 734.132 1025.713, 740.631 1056.282, 753.983 1087.089 C 758.175 1096.761, 769.938 1118.987, 772.859 1122.754 L 774.500 1124.870 782.361 1119.991 C 786.684 1117.308, 790.429 1114.904, 790.682 1114.651 C 790.936 1114.398, 788.383 1109.459, 785.010 1103.676 C 771.409 1080.361, 762.632 1055.341, 756.885 1023.500 C 755.250 1014.441, 754.604 1006.068, 754.252 989.336 C 753.759 965.898, 755.002 950.954, 758.939 933 C 759.964 928.325, 760.680 924.371, 760.530 924.212 C 760.175 923.837, 742.100 919, 741.053 919 C 740.611 919, 739.945 920.462, 739.572 922.250 M 1243.466 1014.666 C 1232.390 1079.362, 1204.810 1130.257, 1158.944 1170.639 C 1152.893 1175.967, 1148.067 1180.661, 1148.221 1181.072 C 1148.374 1181.482, 1150.651 1184.576, 1153.279 1187.948 L 1158.059 1194.078 1161.033 1192.321 C 1162.669 1191.355, 1167.392 1187.400, 1171.527 1183.532 L 1179.047 1176.500 1177.571 1172.372 C 1173.804 1161.842, 1183.524 1152.637, 1193.575 1157.216 C 1196.012 1158.326, 1196.457 1158.174, 1198.693 1155.466 C 1202.946 1150.317, 1215.491 1133.696, 1218.879 1128.723 L 1222.133 1123.947 1219.566 1120.897 C 1217.754 1118.742, 1217 1116.680, 1217 1113.874 C 1217 1105.708, 1221.742 1101.486, 1230.158 1102.157 L 1234.454 1102.500 1239.141 1092 C 1241.718 1086.225, 1245.266 1077.339, 1247.024 1072.254 L 1250.220 1063.008 1247.187 1060.175 C 1243.224 1056.473, 1242.238 1051.408, 1244.537 1046.563 C 1246.372 1042.697, 1248.660 1041.031, 1253.500 1040.036 C 1256.330 1039.455, 1256.593 1038.981, 1258.139 1031.678 C 1259.040 1027.420, 1260.077 1021.536, 1260.444 1018.603 L 1261.110 1013.269 1253.953 1012.564 C 1250.016 1012.176, 1246.194 1011.628, 1245.459 1011.346 C 1244.543 1010.995, 1243.915 1012.042, 1243.466 1014.666 M 1261.642 1025.472 C 1260.621 1031.871, 1259.567 1037.940, 1259.301 1038.957 C 1258.970 1040.224, 1259.499 1041.023, 1260.978 1041.493 C 1263.736 1042.368, 1266.991 1047.673, 1266.996 1051.300 C 1267.005 1057.509, 1262.199 1062.978, 1256.549 1063.191 C 1254.492 1063.268, 1252.650 1063.819, 1252.455 1064.416 C 1249.987 1071.945, 1243.855 1087.431, 1240.430 1094.783 L 1236.106 1104.065 1238.179 1107.578 C 1242.819 1115.443, 1237.598 1125, 1228.661 1125 C 1224.437 1125, 1224.257 1125.140, 1219.427 1132.219 C 1216.717 1136.189, 1210.769 1144.114, 1206.209 1149.829 C 1198.066 1160.034, 1197.937 1160.280, 1199.037 1163.613 C 1200.557 1168.217, 1199.453 1172.393, 1195.734 1176.112 C 1192.844 1179.002, 1192.244 1179.185, 1187.065 1178.750 L 1181.500 1178.283 1173 1185.573 C 1168.325 1189.582, 1163.410 1193.725, 1162.079 1194.779 L 1159.657 1196.696 1163 1201.351 C 1166.319 1205.972, 1166.361 1205.994, 1168.921 1204.363 C 1178.349 1198.359, 1198.208 1179.177, 1211.665 1163.079 C 1238.813 1130.602, 1258.272 1092.557, 1269.139 1050.710 C 1272.048 1039.509, 1276.003 1016.652, 1275.175 1015.835 C 1274.804 1015.470, 1272.025 1014.870, 1269 1014.503 L 1263.500 1013.836 1261.642 1025.472 M 1251.411 1043.469 C 1247.752 1045.008, 1245.468 1049.745, 1246.467 1053.725 C 1247.281 1056.968, 1248.788 1059, 1250.380 1059 C 1251.618 1059, 1256.174 1043.226, 1255.124 1042.577 C 1254.770 1042.358, 1253.099 1042.759, 1251.411 1043.469 M 1256.157 1051.089 C 1254.966 1055.538, 1254.208 1059.528, 1254.472 1059.955 C 1255.382 1061.428, 1260.050 1059.752, 1262.023 1057.244 C 1263.110 1055.862, 1264 1053.398, 1264 1051.770 C 1264 1048.922, 1260.686 1043, 1259.093 1043 C 1258.669 1043, 1257.348 1046.640, 1256.157 1051.089 M 1223.229 1105.669 C 1221.575 1106.335, 1219 1111.344, 1219 1113.895 C 1219 1114.991, 1220.058 1117.119, 1221.352 1118.623 L 1223.704 1121.357 1227.852 1114.254 C 1230.133 1110.347, 1232 1106.667, 1232 1106.076 C 1232 1105, 1225.626 1104.705, 1223.229 1105.669 M 1231.996 1111.723 C 1230.626 1114.350, 1228.709 1117.706, 1227.735 1119.180 C 1224.708 1123.760, 1229.897 1124.152, 1234.750 1119.711 C 1237.299 1117.378, 1237.827 1111.513, 1235.744 1108.664 C 1234.623 1107.132, 1234.218 1107.462, 1231.996 1111.723 M 555.287 1115.711 C 553.596 1120.846, 552.856 1121.781, 548.740 1123.983 L 544.099 1126.465 538.527 1123.733 C 535.463 1122.230, 532.388 1121, 531.694 1121 C 531 1121, 528.004 1123.458, 525.036 1126.463 L 519.641 1131.927 522.309 1138.111 C 524.956 1144.244, 524.964 1144.334, 523.275 1149.087 C 521.648 1153.670, 521.286 1153.985, 515.037 1156.271 L 508.500 1158.663 508.213 1166.602 L 507.927 1174.542 514.521 1177.008 C 520.554 1179.264, 521.287 1179.859, 523.123 1183.987 L 525.129 1188.500 522.501 1194.925 L 519.872 1201.351 525.399 1206.877 L 530.925 1212.403 536.732 1209.628 L 542.539 1206.852 547.370 1208.750 C 551.845 1210.508, 552.397 1211.119, 554.882 1217.074 L 557.563 1223.500 565.387 1223.500 L 573.211 1223.500 575.761 1217.125 C 578.037 1211.437, 578.786 1210.540, 582.708 1208.805 L 587.104 1206.860 593.438 1209.824 L 599.772 1212.788 605.400 1207.101 L 611.029 1201.413 608.340 1195.181 L 605.651 1188.950 607.575 1184.360 C 609.324 1180.190, 610.074 1179.542, 615.788 1177.264 L 622.077 1174.758 621.788 1166.698 L 621.500 1158.638 615.162 1156.063 C 609.988 1153.961, 608.565 1152.872, 607.412 1150.129 C 605.487 1145.550, 605.610 1144.130, 608.498 1137.601 L 610.996 1131.953 605.562 1126.343 C 599.660 1120.250, 599.965 1120.300, 591.467 1124.014 L 586.433 1126.214 581.962 1124.112 C 578.007 1122.253, 577.253 1121.347, 575.425 1116.255 L 573.358 1110.500 565.275 1110.211 L 557.193 1109.922 555.287 1115.711 M 558.113 1114.250 C 557.652 1115.487, 556.681 1118.166, 555.954 1120.202 C 554.850 1123.297, 553.722 1124.298, 549.078 1126.303 L 543.523 1128.702 537.378 1125.945 L 531.232 1123.188 526.902 1127.599 L 522.573 1132.011 524.418 1136.756 C 527.222 1143.965, 527.315 1146.091, 525.048 1151.185 C 523.195 1155.351, 522.353 1156.098, 517.444 1157.935 C 514.409 1159.071, 511.471 1160, 510.917 1160 C 510.311 1160, 510.027 1162.655, 510.204 1166.658 L 510.500 1173.316 515.982 1175.176 C 522.287 1177.315, 522.968 1177.935, 525.523 1183.860 C 527.396 1188.204, 527.394 1188.245, 525.080 1194.698 L 522.757 1201.176 527.027 1205.527 L 531.297 1209.879 537.117 1206.941 L 542.936 1204.004 548.590 1206.752 C 553.840 1209.303, 554.418 1209.938, 556.674 1215.616 L 559.104 1221.732 565.298 1221.616 L 571.492 1221.500 573.504 1215.825 C 575.907 1209.049, 575.628 1209.361, 581.867 1206.470 L 586.842 1204.165 593.032 1207.093 L 599.223 1210.021 603.778 1205.593 L 608.333 1201.165 605.698 1195.089 L 603.063 1189.013 605.148 1183.566 C 607.136 1178.371, 607.516 1178.006, 613.366 1175.669 L 619.500 1173.218 619.794 1166.705 L 620.087 1160.192 613.662 1158.054 C 607.247 1155.919, 607.234 1155.907, 605.114 1150.093 L 602.991 1144.270 605.559 1138.462 L 608.128 1132.654 603.615 1128.141 L 599.102 1123.628 592.927 1126.293 L 586.752 1128.957 581.156 1126.229 C 575.949 1123.689, 575.420 1123.101, 573.537 1117.750 L 571.512 1112 565.231 1112 C 559.633 1112, 558.860 1112.244, 558.113 1114.250 M 782.760 1123.153 L 776.020 1127.225 777.725 1130.112 C 781.377 1136.294, 792.924 1151.226, 801.708 1161.124 C 811.053 1171.654, 827.100 1187, 828.766 1187 C 829.720 1187, 839 1175.501, 839 1174.319 C 839 1173.945, 832.797 1167.308, 825.216 1159.570 C 811.424 1145.491, 801.751 1134.107, 795.204 1124.250 C 793.286 1121.362, 791.218 1119.018, 790.608 1119.041 C 789.999 1119.063, 786.467 1120.913, 782.760 1123.153 M 1428.030 1140.836 L 1421.756 1158.712 1416.128 1160.470 C 1413.033 1161.437, 1407.050 1163.797, 1402.834 1165.715 L 1395.169 1169.201 1378.349 1161.105 L 1361.529 1153.009 1352.192 1162.254 C 1347.057 1167.339, 1340.589 1174.093, 1337.818 1177.263 L 1332.779 1183.026 1340.396 1199.263 C 1344.585 1208.193, 1348.010 1216.016, 1348.006 1216.647 C 1348.003 1217.278, 1346.696 1220.428, 1345.103 1223.647 C 1343.510 1226.866, 1341.147 1232.595, 1339.853 1236.378 C 1337.141 1244.305, 1338.427 1243.497, 1315.750 1251.529 L 1302 1256.399 1302 1276.994 L 1302 1297.588 1314.750 1302.293 C 1321.763 1304.881, 1329.688 1307.786, 1332.361 1308.749 C 1337.119 1310.463, 1337.281 1310.660, 1339.958 1318 C 1341.463 1322.125, 1343.888 1327.848, 1345.347 1330.717 C 1346.806 1333.586, 1348 1336.635, 1348 1337.492 C 1348 1338.349, 1346.476 1342.076, 1344.614 1345.775 C 1342.752 1349.474, 1339.589 1357.675, 1337.586 1364 L 1333.944 1375.500 1339.722 1381.017 C 1362.043 1402.330, 1365.356 1405.127, 1367.612 1404.561 C 1370.239 1403.902, 1379.018 1398.171, 1387.351 1391.675 L 1393.202 1387.115 1398.851 1389.666 C 1401.958 1391.070, 1409 1393.929, 1414.500 1396.020 L 1424.500 1399.821 1426.904 1405.661 C 1428.227 1408.872, 1430.931 1415.775, 1432.913 1421 L 1436.517 1430.500 1458.630 1430.769 L 1480.742 1431.038 1481.835 1428.269 C 1482.436 1426.746, 1483.829 1421.900, 1484.930 1417.500 C 1486.032 1413.100, 1487.772 1407.045, 1488.797 1404.045 C 1490.555 1398.897, 1490.910 1398.526, 1495.080 1397.462 C 1497.511 1396.842, 1503.776 1394.459, 1509.002 1392.167 C 1514.228 1389.875, 1518.904 1388, 1519.394 1388 C 1519.883 1388, 1523.081 1389.767, 1526.500 1391.926 C 1533.327 1396.237, 1547.848 1403.465, 1548.494 1402.873 C 1548.717 1402.668, 1554.435 1397.100, 1561.200 1390.500 C 1567.965 1383.900, 1574.737 1377.490, 1576.250 1376.257 C 1579.230 1373.826, 1579.882 1369.977, 1577.630 1368.108 C 1576.877 1367.483, 1575.504 1364.991, 1574.580 1362.570 C 1571.065 1353.366, 1564 1342.246, 1564 1345.917 C 1564 1347.183, 1567.883 1355.189, 1568.890 1356 C 1570.732 1357.483, 1576.081 1370.168, 1575.559 1371.814 C 1575.230 1372.850, 1569.163 1379.391, 1562.076 1386.349 C 1552.171 1396.075, 1548.584 1399, 1546.563 1399 C 1543.657 1399, 1536.373 1395.560, 1528.107 1390.284 C 1519.277 1384.648, 1518.868 1384.603, 1510.706 1388.373 C 1506.724 1390.212, 1502.348 1392.058, 1500.983 1392.473 C 1499.617 1392.889, 1496.382 1394.125, 1493.793 1395.219 C 1488.511 1397.452, 1488.708 1397.081, 1482.236 1417 L 1478.500 1428.500 1458.507 1428.500 L 1438.514 1428.500 1432.375 1413.006 C 1426.250 1397.544, 1426.229 1397.509, 1422.369 1396.373 C 1420.241 1395.746, 1413.156 1392.931, 1406.625 1390.117 C 1400.093 1387.302, 1394.243 1385.002, 1393.625 1385.003 C 1393.006 1385.005, 1387.398 1388.830, 1381.163 1393.503 C 1374.928 1398.177, 1369.051 1402, 1368.103 1402 C 1367.156 1402, 1363.932 1399.915, 1360.940 1397.366 C 1350.411 1388.398, 1338.849 1377.586, 1337.908 1375.829 C 1336.428 1373.063, 1338.595 1365.973, 1345.518 1350.922 L 1351.764 1337.345 1347.879 1329.422 C 1345.741 1325.065, 1343.010 1318.475, 1341.809 1314.778 L 1339.625 1308.057 1333.562 1306.011 C 1330.228 1304.886, 1322.438 1302.081, 1316.250 1299.776 L 1305 1295.587 1305 1277.015 L 1305 1258.443 1322.148 1252.351 L 1339.295 1246.260 1341.993 1238.880 C 1343.477 1234.821, 1346.254 1228.125, 1348.164 1224 L 1351.637 1216.500 1343.866 1200 L 1336.094 1183.500 1343.416 1176 C 1347.443 1171.875, 1353.225 1165.820, 1356.266 1162.544 L 1361.794 1156.589 1378.365 1164.451 L 1394.935 1172.313 1405.842 1167.657 C 1411.841 1165.096, 1418.145 1162.721, 1419.852 1162.380 C 1421.559 1162.038, 1423.371 1161.251, 1423.878 1160.629 C 1424.386 1160.008, 1427.382 1151.953, 1430.535 1142.729 L 1436.269 1125.958 1455.322 1126.229 L 1474.375 1126.500 1480.564 1143.396 L 1486.754 1160.292 1495.127 1163.471 C 1499.732 1165.220, 1506.167 1168.014, 1509.427 1169.680 L 1515.354 1172.709 1531.895 1164.872 L 1548.437 1157.034 1560.967 1169.267 C 1567.859 1175.995, 1573.776 1181.950, 1574.118 1182.500 C 1574.459 1183.050, 1571.263 1190.888, 1567.016 1199.919 L 1559.294 1216.337 1563.527 1225.419 C 1565.855 1230.413, 1568.549 1237.018, 1569.514 1240.095 L 1571.267 1245.690 1582.884 1249.718 C 1589.273 1251.933, 1596.274 1254.141, 1598.442 1254.623 C 1601.835 1255.378, 1602.510 1255.987, 1603.285 1258.998 C 1603.780 1260.921, 1604.031 1270.500, 1603.843 1280.285 C 1603.474 1299.438, 1603.321 1299.952, 1598.001 1299.985 C 1596.627 1299.993, 1590.101 1301.800, 1583.498 1304.001 L 1571.493 1308.001 1569.149 1314.751 C 1567.860 1318.463, 1565.259 1324.858, 1563.369 1328.962 C 1560.013 1336.252, 1559.562 1340.993, 1562.077 1342.548 C 1563.945 1343.702, 1564.935 1341.951, 1563.809 1339.481 C 1562.858 1337.392, 1563.284 1335.750, 1566.717 1328.267 C 1568.929 1323.445, 1571.500 1317.451, 1572.430 1314.948 L 1574.121 1310.395 1585.310 1306.787 C 1591.465 1304.802, 1598.182 1302.894, 1600.238 1302.546 C 1602.403 1302.180, 1604.402 1301.118, 1604.988 1300.023 C 1605.582 1298.912, 1606 1289.093, 1606 1276.226 L 1606 1254.321 1603.589 1253.223 C 1602.263 1252.618, 1599.578 1251.824, 1597.623 1251.457 C 1595.667 1251.090, 1589.491 1249.110, 1583.898 1247.057 L 1573.728 1243.323 1570.983 1235.794 C 1569.473 1231.652, 1567.059 1225.918, 1565.619 1223.050 C 1564.179 1220.182, 1563 1217.352, 1563 1216.761 C 1563 1216.170, 1566.375 1208.359, 1570.500 1199.403 C 1574.625 1190.447, 1578 1182.791, 1578 1182.390 C 1578 1181.025, 1550.599 1154, 1549.216 1154 C 1548.459 1154, 1540.834 1157.375, 1532.271 1161.500 C 1523.708 1165.625, 1516.276 1169, 1515.755 1169 C 1515.234 1169, 1511.589 1167.478, 1507.654 1165.618 C 1503.719 1163.758, 1497.964 1161.442, 1494.865 1160.472 L 1489.230 1158.707 1482.788 1141.104 L 1476.345 1123.500 1455.324 1123.231 L 1434.303 1122.961 1428.030 1140.836 M 768.754 1131.761 C 766.144 1133.268, 764.006 1134.764, 764.004 1135.087 C 763.993 1136.681, 778.868 1156.795, 787.291 1166.575 C 796.116 1176.821, 818.471 1199.040, 819.884 1198.969 C 820.223 1198.952, 821.971 1196.984, 823.770 1194.595 L 827.040 1190.253 811.246 1174.376 C 801.750 1164.830, 791.874 1153.690, 786.476 1146.437 C 781.539 1139.803, 776.600 1133.170, 775.500 1131.699 L 773.500 1129.023 768.754 1131.761 M 555.492 1137.797 C 548.889 1140.081, 543.777 1144.094, 540.169 1149.827 C 535.903 1156.606, 534.682 1161.318, 535.228 1168.891 C 536.572 1187.542, 552.658 1200.367, 570.487 1197.002 C 585.460 1194.177, 595.166 1182.447, 595.314 1167 C 595.410 1157.031, 592.667 1150.724, 585.312 1144.002 C 576.858 1136.276, 566.265 1134.072, 555.492 1137.797 M 556.500 1139.708 C 549.115 1142.224, 540.957 1150.709, 538.574 1158.353 C 535.419 1168.471, 537.737 1178.505, 545.065 1186.454 C 550.810 1192.688, 557.497 1195.304, 566.420 1194.809 C 578.070 1194.163, 585.889 1188.853, 590.717 1178.307 C 593.820 1171.529, 594.001 1162.051, 591.150 1155.605 C 585.268 1142.308, 569.758 1135.192, 556.500 1139.708 M 766.500 1160.203 C 765.400 1160.804, 764.351 1161.415, 764.169 1161.562 C 762.916 1162.572, 772.557 1175, 774.595 1175 C 776.575 1175, 778.892 1169.886, 778.304 1166.811 C 777.331 1161.719, 770.613 1157.958, 766.500 1160.203 M 1183.229 1159.669 C 1181.732 1160.272, 1179 1165.256, 1179 1167.385 C 1179 1168.202, 1179.469 1170.104, 1180.043 1171.613 L 1181.086 1174.357 1187.510 1167.991 C 1192.446 1163.098, 1193.681 1161.321, 1192.844 1160.312 C 1191.786 1159.037, 1185.795 1158.637, 1183.229 1159.669 M 1191.426 1167.318 C 1189.267 1169.719, 1186.643 1172.655, 1185.595 1173.842 L 1183.690 1176 1187.893 1176 C 1192.834 1176, 1197.010 1172.374, 1196.985 1168.104 C 1196.954 1162.902, 1195.572 1162.707, 1191.426 1167.318 M 761.683 1165.650 C 758.720 1168.614, 763.784 1177, 768.537 1177 L 771.170 1177 767.412 1171.750 C 762.476 1164.856, 762.477 1164.857, 761.683 1165.650 M 781.089 1170.641 C 780.536 1172.644, 779.070 1175.361, 777.832 1176.679 L 775.581 1179.075 791.540 1194.810 C 833.412 1236.090, 881.952 1261.781, 942.044 1274.469 C 956.506 1277.522, 956 1277.508, 956 1274.871 C 956 1272.881, 956.342 1272.788, 961.250 1273.441 C 991.030 1277.405, 1016.327 1276.947, 1047 1271.888 C 1088.661 1265.018, 1126.256 1249.781, 1163.500 1224.673 C 1168.450 1221.336, 1172.598 1218.560, 1172.717 1218.503 C 1172.836 1218.446, 1172.575 1217.072, 1172.137 1215.450 C 1171.698 1213.827, 1171.665 1211.041, 1172.063 1209.257 C 1172.916 1205.433, 1174.095 1204.870, 1158.743 1215.621 C 1126.684 1238.072, 1087.195 1254.533, 1049 1261.367 C 1015.974 1267.276, 971.674 1266.886, 937.500 1260.385 C 913.928 1255.901, 882.954 1244.320, 859.500 1231.220 C 834.545 1217.281, 806.991 1195.217, 790.061 1175.614 C 785.969 1170.876, 782.503 1167, 782.358 1167 C 782.213 1167, 781.642 1168.639, 781.089 1170.641 M 838.175 1181.047 C 835.274 1184.923, 832.690 1188.643, 832.433 1189.315 C 831.969 1190.524, 845.928 1202, 847.863 1202 C 848.852 1202, 860.023 1186.479, 859.976 1185.170 C 859.946 1184.327, 845.452 1174, 844.299 1174 C 843.831 1174, 841.075 1177.171, 838.175 1181.047 M 1139.491 1186.162 C 1127.660 1195.076, 1101.747 1208.680, 1083.966 1215.314 C 1046.901 1229.142, 1001.108 1234.194, 965.041 1228.435 C 960.389 1227.692, 956.405 1227.262, 956.188 1227.479 C 955.647 1228.019, 952.870 1244.203, 953.252 1244.585 C 954.050 1245.383, 968.195 1247.095, 982.014 1248.066 C 1024.953 1251.082, 1072.841 1241.689, 1112.500 1222.471 C 1123.607 1217.088, 1142.152 1206.249, 1150.547 1200.233 L 1155.106 1196.966 1150.406 1190.983 C 1143.837 1182.623, 1144.059 1182.721, 1139.491 1186.162 M 856.250 1196.681 C 853.913 1200.201, 852 1203.481, 852 1203.968 C 852 1204.967, 856.848 1209, 858.048 1209 C 858.843 1209, 867 1195.420, 867 1194.097 C 867 1193.698, 865.538 1192.675, 863.750 1191.825 L 860.500 1190.280 856.250 1196.681 M 826.750 1195.447 C 825.237 1197.342, 824.012 1199.255, 824.026 1199.697 C 824.057 1200.661, 839.573 1212, 840.861 1212 C 841.357 1212, 842.940 1210.457, 844.378 1208.571 L 846.994 1205.142 838.481 1198.571 C 833.799 1194.957, 829.863 1192, 829.734 1192 C 829.605 1192, 828.263 1193.551, 826.750 1195.447 M 867.066 1201.772 C 864.280 1206.485, 862 1210.668, 862 1211.069 C 862 1211.470, 865.990 1213.858, 870.867 1216.377 L 879.735 1220.957 883.867 1211.936 C 886.140 1206.974, 887.992 1202.596, 887.983 1202.207 C 887.974 1201.818, 884.404 1199.633, 880.049 1197.352 L 872.132 1193.204 867.066 1201.772 M 1441.369 1195.570 C 1432.175 1197.114, 1425.438 1199.531, 1416 1204.672 C 1409.099 1208.432, 1395.734 1218.792, 1396.214 1220.011 C 1396.371 1220.411, 1403.700 1227.420, 1412.500 1235.587 C 1421.300 1243.755, 1434.056 1255.739, 1440.846 1262.219 C 1447.637 1268.698, 1453.613 1274, 1454.126 1274 C 1455.483 1274, 1511 1218.905, 1511 1217.558 C 1511 1215.954, 1503.678 1210.054, 1495.823 1205.329 C 1487.711 1200.450, 1476.181 1196.530, 1465.678 1195.080 C 1456.003 1193.744, 1451.721 1193.830, 1441.369 1195.570 M 1445 1198.078 C 1435.940 1199.227, 1423.044 1203.584, 1415.989 1207.878 C 1409.411 1211.882, 1401 1218.641, 1401 1219.922 C 1401 1220.374, 1411.013 1230.151, 1423.250 1241.648 C 1450.784 1267.516, 1452.980 1269.500, 1454.082 1269.500 C 1455.408 1269.500, 1507.005 1218.860, 1506.971 1217.592 C 1506.933 1216.160, 1496.849 1208.918, 1490.500 1205.763 C 1483.334 1202.202, 1473.585 1199.189, 1465.500 1198.037 C 1457.551 1196.904, 1454.200 1196.911, 1445 1198.078 M 1144.299 1206.932 C 1115.825 1226.675, 1076.752 1241.837, 1038 1248.181 C 1026.362 1250.086, 1020.775 1250.384, 997.500 1250.341 C 977.705 1250.305, 968.232 1249.880, 962 1248.750 C 957.325 1247.902, 953.200 1247.499, 952.832 1247.854 C 952.465 1248.209, 951.855 1250.617, 951.476 1253.204 C 950.834 1257.587, 950.947 1257.944, 953.143 1258.432 C 965.812 1261.244, 999.402 1262.621, 1019 1261.130 C 1062.977 1257.785, 1105.920 1243.974, 1141.500 1221.730 C 1150.270 1216.247, 1162 1207.680, 1162 1206.758 C 1162 1205.586, 1156.946 1198.976, 1156.131 1199.083 C 1155.784 1199.129, 1150.460 1202.661, 1144.299 1206.932 M 1178.831 1204.489 C 1175.429 1206.388, 1173.554 1211.696, 1174.969 1215.419 L 1175.998 1218.126 1180.249 1215.062 C 1189.850 1208.142, 1190.643 1207.282, 1188.987 1205.591 C 1186.743 1203.299, 1181.904 1202.774, 1178.831 1204.489 M 845.966 1211.549 C 842.553 1216.510, 842.711 1217.247, 847.835 1220.254 L 850.823 1222.009 853.912 1216.989 C 855.610 1214.229, 857 1211.788, 857 1211.567 C 857 1211.066, 850.482 1207, 849.680 1207 C 849.359 1207, 847.688 1209.047, 845.966 1211.549 M 886.410 1214.628 C 884.496 1218.828, 883.059 1222.372, 883.215 1222.505 C 884.983 1224, 890.399 1225.978, 890.966 1225.335 C 892.574 1223.511, 897.058 1210.667, 896.304 1210.044 C 895.862 1209.679, 894.238 1208.843, 892.695 1208.186 L 889.890 1206.993 886.410 1214.628 M 900.307 1210.750 C 899.960 1211.713, 898.399 1215.865, 896.838 1219.977 C 895.277 1224.090, 894 1227.506, 894 1227.569 C 894 1228.135, 908.419 1233.142, 910.495 1233.297 C 913.047 1233.489, 913.381 1232.981, 916.433 1224.269 L 919.667 1215.038 915.083 1213.357 C 912.563 1212.432, 908.983 1211.074, 907.128 1210.338 C 902.637 1208.556, 901.063 1208.651, 900.307 1210.750 M 1184.931 1215.045 C 1181.944 1217.269, 1179.350 1219.519, 1179.167 1220.045 C 1178.983 1220.570, 1180.480 1221, 1182.494 1221 C 1186.701 1221, 1192 1216.584, 1192 1213.077 C 1192 1210.186, 1191.129 1210.428, 1184.931 1215.045 M 857.250 1217.498 C 856.013 1219.409, 855 1221.180, 855 1221.434 C 855 1221.933, 870.369 1230.448, 873.255 1231.549 C 874.606 1232.064, 875.356 1231.393, 876.505 1228.641 C 877.327 1226.674, 878 1224.641, 878 1224.123 C 878 1223.216, 861.807 1213.987, 860.260 1214.012 C 859.842 1214.019, 858.487 1215.588, 857.250 1217.498 M 919.078 1225.967 C 917.915 1229.800, 916.709 1233.595, 916.400 1234.401 C 915.978 1235.500, 917.544 1236.372, 922.669 1237.888 C 931.335 1240.452, 948.143 1244.190, 948.665 1243.669 C 948.882 1243.451, 949.489 1240.624, 950.012 1237.386 C 950.536 1234.149, 951.219 1230.325, 951.531 1228.890 C 952.076 1226.378, 951.858 1226.234, 945.799 1225.089 C 942.334 1224.434, 935.590 1222.796, 930.812 1221.449 C 926.033 1220.102, 921.915 1219, 921.659 1219 C 921.404 1219, 920.242 1222.135, 919.078 1225.967 M 1487.743 1250.757 C 1472.484 1266.023, 1460 1278.791, 1460 1279.130 C 1460 1279.470, 1465.963 1285.296, 1473.250 1292.077 C 1480.537 1298.858, 1492.676 1310.253, 1500.225 1317.399 C 1507.774 1324.546, 1514.691 1330.807, 1515.595 1331.313 C 1517.623 1332.448, 1520.094 1329.595, 1526.067 1319.222 C 1542.897 1289.993, 1541.064 1254.905, 1521.289 1227.750 C 1519.386 1225.138, 1517.302 1223, 1516.658 1223 C 1516.014 1223, 1503.002 1235.490, 1487.743 1250.757 M 879.133 1230.133 C 877.960 1232.957, 877 1235.608, 877 1236.025 C 877 1236.795, 885.007 1240.327, 885.541 1239.792 C 886.128 1239.204, 890.064 1228.732, 889.787 1228.497 C 888.873 1227.723, 882.952 1225, 882.183 1225 C 881.679 1225, 880.307 1227.310, 879.133 1230.133 M 1389.326 1228.281 C 1381.116 1237.632, 1374.329 1255.764, 1373.301 1271.094 C 1372.290 1286.156, 1376.066 1303.368, 1383.125 1315.875 C 1387.252 1323.189, 1393.948 1332, 1395.377 1332 C 1396.003 1332, 1408.436 1320.058, 1423.007 1305.462 L 1449.500 1278.924 1444.500 1274.246 C 1441.750 1271.673, 1432.975 1263.478, 1425 1256.034 C 1417.025 1248.590, 1406.402 1238.543, 1401.393 1233.706 L 1392.285 1224.911 1389.326 1228.281 M 1489.493 1253.043 L 1463.500 1279.087 1467.500 1282.718 C 1471.675 1286.509, 1497.524 1310.776, 1509.341 1322 L 1516.184 1328.500 1518.597 1325.500 C 1522.327 1320.862, 1528.574 1308.238, 1530.904 1300.634 C 1536.869 1281.157, 1535.196 1259.201, 1526.422 1241.829 C 1522.662 1234.385, 1517.726 1227, 1516.509 1227 C 1515.946 1227, 1503.789 1238.720, 1489.493 1253.043 M 1390.007 1231.717 C 1388.802 1233.248, 1386.024 1238.203, 1383.833 1242.729 C 1373.896 1263.254, 1373.608 1288.476, 1383.075 1309 C 1386.114 1315.588, 1393.970 1328, 1395.101 1328 C 1395.440 1328, 1406.919 1316.962, 1420.609 1303.470 L 1445.500 1278.940 1441.416 1275.220 C 1432.457 1267.058, 1408.033 1244.206, 1400.349 1236.795 L 1392.197 1228.934 1390.007 1231.717 M 891.667 1232.677 C 888.600 1238.608, 888.799 1238.896, 898.500 1242.574 C 903.450 1244.450, 908.006 1245.989, 908.625 1245.993 C 909.244 1245.997, 910 1244.763, 910.305 1243.250 C 910.610 1241.737, 911.145 1239.763, 911.494 1238.862 C 911.999 1237.556, 910.542 1236.612, 904.314 1234.208 C 900.016 1232.550, 895.743 1230.888, 894.818 1230.515 C 893.607 1230.028, 892.724 1230.634, 891.667 1232.677 M 914.229 1240.698 C 913.647 1242.239, 912.710 1244.952, 912.146 1246.726 L 911.121 1249.951 917.811 1251.917 C 926.050 1254.338, 945.844 1258.495, 946.400 1257.921 C 946.624 1257.689, 947.127 1254.912, 947.519 1251.750 C 948.209 1246.177, 948.158 1245.999, 945.865 1245.962 C 943.519 1245.925, 919.976 1239.939, 916.893 1238.596 C 915.724 1238.087, 914.998 1238.660, 914.229 1240.698 M 1426.500 1310.656 L 1399.500 1337.234 1403.795 1340.933 C 1413.991 1349.714, 1425.980 1355.178, 1440.068 1357.462 C 1452.365 1359.457, 1460.069 1359.358, 1473.480 1357.036 C 1481.907 1355.577, 1486.326 1354.188, 1492.480 1351.067 C 1500.920 1346.787, 1512.342 1338.479, 1511.812 1337.006 C 1511.640 1336.530, 1506.710 1331.721, 1500.856 1326.320 C 1495.002 1320.919, 1482.336 1309.188, 1472.710 1300.250 C 1463.083 1291.313, 1454.823 1284.017, 1454.353 1284.039 C 1453.884 1284.060, 1441.350 1296.037, 1426.500 1310.656 M 1428.750 1312.604 C 1415.138 1326.129, 1404 1337.359, 1404 1337.560 C 1404 1338.602, 1417.305 1346.737, 1424.381 1350.021 C 1435.029 1354.963, 1440.507 1356.003, 1455.799 1355.985 C 1474.570 1355.963, 1485.828 1352.587, 1501.200 1342.367 C 1506.899 1338.578, 1507.870 1337.548, 1506.874 1336.348 C 1504.195 1333.120, 1455.726 1288.482, 1454.655 1288.256 C 1454.020 1288.123, 1442.362 1299.079, 1428.750 1312.604" stroke="none" fill="#000000" fill-rule="evenodd"/>
</svg>